<svg width="70" height="70" viewBox="0 0 70 70" fill="none" xmlns="http://www.w3.org/2000/svg">
<g clip-path="url(#clip0_1150_950)">
<path fill-rule="evenodd" clip-rule="evenodd" d="M57.2966 18.0147H26.8509V21.8631H57.2966V34.7173H26.8509V38.4356H57.2966V51.2418H12.1697V5.9043H57.2966V18.0147ZM58.6551 64.096H56.0357L55.3886 62.6002H52.4303L51.8155 64.0797L49.293 64.096L51.8478 55.8172H55.5349L58.6551 64.096ZM19.5424 58.34H13.9644V59.0834H19.5424V61.2177H13.9644V61.9618H19.5424V64.096H11.345V56.1898H19.5424V58.34ZM26.2041 56.2054C27.4977 56.3351 28.8072 56.9495 29.3893 58.2104C30.0198 59.5849 29.9232 61.5576 28.8882 62.7215C27.9988 63.7082 26.8346 64.1123 25.5087 64.096H21.2079V56.1898L26.2041 56.2054ZM38.7674 58.34H33.189V59.0834H38.7674V61.2177H33.189V61.9618H38.7674V64.096H30.57V56.1898H38.7674V58.34ZM42.8587 58.8089L45.1702 56.1898H48.6463L45.8006 59.7785L49.1478 64.096H45.8816L43.9416 61.5739L42.8587 62.8025V64.096H40.0766V56.1898H42.8587V58.8089Z" fill="#F9FAF4"/>
</g>
<defs>
<clipPath id="clip0_1150_950">
<rect width="70" height="70" fill="white"/>
</clipPath>
</defs>
</svg>
