<svg width="94" height="60" viewBox="0 0 94 60" fill="none" xmlns="http://www.w3.org/2000/svg">
<path d="M28.6897 2.39918C28.8492 2.24129 28.9992 2.17773 29.1282 2.17773C29.3595 2.17773 29.5221 2.38379 29.5146 2.63523C29.5075 2.78444 29.4432 2.94826 29.2995 3.09194C23.5517 10.2387 19.3716 18.5909 19.3716 30.1784C19.3716 41.756 23.5517 49.948 29.2995 57.0911C29.4432 57.2352 29.5075 57.4018 29.5146 57.5483C29.5221 57.7965 29.3595 58.0061 29.1282 58.0061C28.9992 58.0061 28.8492 57.9422 28.6897 57.7835L4.20497 34.1013C2.98302 33.0541 2.20312 31.8323 2.20312 30.0939C2.20312 28.348 2.98302 27.1294 4.20497 26.0905L28.6897 2.39918Z" fill="#F9FAF4"/>
<path d="M47.5156 0.394531C37.9287 0.394531 34.1812 13.983 34.1812 30.179C34.1812 46.379 37.9287 59.7866 47.5156 59.7866C53.2678 59.7866 58.1714 56.4168 58.1883 53.6477C58.1895 53.0426 57.957 52.4611 57.4479 51.9539C54.723 49.3194 53.6558 46.6849 53.6455 44.3627C53.6301 39.9266 57.4791 36.6207 61.0249 36.6207C65.9029 36.6207 68.7789 40.456 68.7789 45.4198C68.7789 50.1219 66.7712 54.0432 64.5933 57.1778C64.5088 57.3089 64.4706 57.4486 64.4706 57.5749C64.4733 57.8224 64.6158 58.0237 64.8329 58.0237C64.9655 58.0237 65.1202 57.9535 65.2879 57.7837L89.7798 34.1015C91.0025 33.0547 91.7832 31.833 91.7832 30.0945C91.7832 28.3486 91.0025 27.1297 89.7798 26.0907L65.2879 2.39979C65.1202 2.23203 64.9655 2.16177 64.8329 2.16177C64.6142 2.16177 64.4733 2.36466 64.4706 2.61137C64.4706 2.73848 64.5088 2.8794 64.5933 3.01085C66.7712 6.14151 68.7789 10.0676 68.7789 14.7661C68.7789 19.7264 65.9029 23.5656 61.0249 23.5656C57.4791 23.5656 53.6301 20.262 53.6455 15.8244C53.6558 13.5002 54.723 10.8661 57.4479 8.2344C57.957 7.72203 58.1895 7.14493 58.1883 6.5398C58.1714 3.76677 53.2678 0.394531 47.5156 0.394531Z" fill="#F9FAF4"/>
</svg>
