<svg width="207" height="50" viewBox="0 0 207 50" fill="none" xmlns="http://www.w3.org/2000/svg">
<g clip-path="url(#clip0_1150_932)">
<path d="M23.5608 30.9624C25.3365 30.9624 26.7747 32.4138 26.7747 34.205C26.7747 35.9962 25.3353 37.4476 23.5608 37.4476C21.7864 37.4476 20.3469 35.9962 20.3469 34.205C20.3469 32.4138 21.7864 30.9624 23.5608 30.9624ZM177.527 11.4804C179.758 9.83466 182.458 8.94843 185.23 8.95216C192.462 8.95216 198.326 14.8666 198.326 22.1619C198.33 24.3423 197.795 26.4898 196.769 28.4136C195.743 30.3374 194.257 31.9779 192.444 33.1891V28.0069H186.779C186.779 28.0069 186.173 30.9097 183.764 30.9097H181.879V20.0237C181.879 18.8941 182.796 17.9967 183.907 17.9405V11.4804H177.527Z" fill="#F9FAF4"/>
<path d="M36.1041 13.4482V32.2194H45.2851V37.1599H30.1406V13.4482H36.1041ZM65.68 31.2359V31.5159C65.68 35.8282 62.91 37.3609 56.797 37.3609C49.2444 37.3609 46.9543 35.547 46.9543 27.6463C46.9543 20.1488 49.5567 18.1327 56.3578 18.1327C63.1302 18.1327 65.6812 19.9873 65.6812 27.0408V28.6933H52.2274V29.459C52.2274 32.6837 53.5352 33.5296 56.5158 33.5296C59.1218 33.5296 60.3782 33.0845 60.4847 31.2347L65.68 31.2359ZM52.2274 25.5906H60.4847V24.9469C60.4452 22.488 59.3958 22.0441 56.3578 22.0441C53.4407 22.0441 52.2274 22.5096 52.2274 25.5906ZM91.2942 37.1599H96.6092V13.4482H91.2942V37.1599ZM78.6875 33.2413C81.3199 33.2413 82.4159 32.6693 82.4709 30.3074H87.6376C87.6184 35.8222 85.1452 37.3621 78.3668 37.3621C71.6005 37.3621 69.193 35.3017 69.193 27.748C69.193 20.1943 71.5993 18.1351 78.3668 18.1351C85.1201 18.1351 87.6029 19.6642 87.6376 25.13H82.4697C82.4015 22.8183 81.2995 22.2547 78.6887 22.2547C75.5251 22.2547 74.5918 22.8422 74.5918 27.7492C74.5918 32.6562 75.5251 33.2425 78.6887 33.2425M119.299 31.2359V31.5159C119.299 35.8282 116.529 37.3609 110.416 37.3609C102.863 37.3609 100.572 35.547 100.572 27.6463C100.572 20.1488 103.176 18.1327 109.976 18.1327C116.749 18.1327 119.299 19.9873 119.299 27.0408V28.6933H105.846V29.459C105.846 32.6837 107.154 33.5296 110.135 33.5296C112.741 33.5296 113.997 33.0845 114.104 31.2347L119.299 31.2359ZM105.846 25.5906H114.104V24.9469C114.064 22.488 113.015 22.0441 109.977 22.0441C107.06 22.0441 105.846 22.5096 105.846 25.5906ZM145.166 33.2413C147.798 33.2413 148.894 32.6681 148.949 30.3074H154.117C154.098 35.821 151.623 37.3609 144.846 37.3609C138.08 37.3609 135.672 35.3005 135.672 27.7468C135.672 20.1931 138.079 18.1339 144.846 18.1339C151.599 18.1339 154.081 19.663 154.116 25.1288H148.948C148.88 22.8171 147.776 22.2535 145.167 22.2535C142.003 22.2535 141.07 22.841 141.07 27.748C141.07 32.655 142.002 33.2413 145.166 33.2413ZM134.344 23.0002L132.882 22.9846C129.964 22.9846 128.558 24.7016 128.558 28.4109V37.1563H123.242V18.4689H128.558V21.2532C129.843 19.1389 131.489 18.1518 133.705 18.1327H134.344V23.0002ZM171.932 16.6849V13.4482H181.971V16.692C180.85 16.9972 179.943 17.964 179.943 19.3591V32.8644H183.763C185.691 32.8644 187.346 31.675 188.042 29.9843L190.508 29.9711V37.1599H171.931V32.9768C173.093 32.6861 173.964 31.5805 173.964 30.3504V19.4441C173.964 17.9053 173.022 16.9684 171.931 16.6849" fill="#F9FAF4"/>
<path d="M159.176 23.9689C159.176 10.7305 169.814 0 182.938 0C196.061 0 206.7 10.7317 206.7 23.9701C206.7 37.2085 196.061 47.9402 182.938 47.9402C169.814 47.9402 159.176 37.2085 159.176 23.9701M164.108 23.9701C164.108 34.4601 172.537 42.9639 182.938 42.9639C193.338 42.9639 201.768 34.4601 201.768 23.9701C201.768 13.4801 193.337 4.97518 182.938 4.97518C172.539 4.97518 164.108 13.4789 164.108 23.9701ZM5.94916 18.3883V22.8346H15.6746V27.2821H5.94916V32.219H17.1774V37.1595H0V13.4478H17.0159V18.3883H5.94916Z" fill="#F9FAF4"/>
</g>
<defs>
<clipPath id="clip0_1150_932">
<rect width="207" height="49.0578" fill="white"/>
</clipPath>
</defs>
</svg>
