<svg width="59" height="60" viewBox="0 0 59 60" fill="none" xmlns="http://www.w3.org/2000/svg">
<g clip-path="url(#clip0_1158_589)">
<path fill-rule="evenodd" clip-rule="evenodd" d="M0 0H59V60H0V0Z" fill="#F9FAF4"/>
<path d="M29.5005 2.75586C44.2587 2.7559 56.2817 14.9703 56.2817 30C56.2816 45.0299 44.2587 57.2431 29.5005 57.2432C14.7414 57.2432 2.71938 45.0296 2.71924 30C2.71924 14.9703 14.7416 2.75586 29.5005 2.75586Z" fill="#F9FAF4" stroke="#0A2712"/>
<path fill-rule="evenodd" clip-rule="evenodd" d="M3.69238 29.9999C3.69238 15.5279 15.2695 3.75391 29.5004 3.75391C43.7309 3.75391 55.3083 15.5279 55.3083 29.9999C55.3083 44.4723 43.7309 56.2453 29.5004 56.2453C15.2695 56.2453 3.69238 44.4723 3.69238 29.9999Z" fill="#0A2712"/>
<path fill-rule="evenodd" clip-rule="evenodd" d="M42.0875 23.5771H50.6329V25.532H49.2843V32.4998L54.5551 29.5673L54.5737 34.6862H42.0398V32.6636H43.4453L43.4548 25.532H42.0964L42.0875 23.5771Z" fill="#F9FAF4"/>
<path fill-rule="evenodd" clip-rule="evenodd" d="M4.7574 23.5771H13.2942V25.5313H11.9547V32.4992L17.2255 29.5673L17.2344 34.6856H4.70996V32.672H6.10572L6.11551 25.5313H4.74853L4.7574 23.5771ZM37.6886 34.6856H28.7901V32.7218H30.3003L30.2715 25.6194H28.7613V23.6929H37.7361C40.3378 23.6833 42.4076 25.5316 42.4366 29.1704C42.4168 32.9235 40.1193 34.6856 37.6886 34.6856ZM35.9124 31.251C36.9473 31.2413 37.8117 30.6412 37.8212 29.0257C37.8212 27.4575 36.9292 26.7705 35.932 26.7705L35.9124 31.251Z" fill="#F9FAF4"/>
<path fill-rule="evenodd" clip-rule="evenodd" d="M23.4698 25.144C25.104 25.144 26.448 23.7737 26.448 22.0994C26.448 20.4263 25.104 19.0645 23.4698 19.0645C21.819 19.0645 20.4827 20.4263 20.4827 22.0994C20.4827 23.7737 21.8193 25.144 23.4698 25.144Z" fill="#F9FAF4"/>
<path d="M27.5876 31.4248L27.7117 31.585L27.8699 31.46L30.45 29.416L31.0066 30.2227L21.6433 37.749L21.0222 36.9473L21.866 36.2793L22.0212 36.1572L21.9001 36L18.5007 31.6123L18.3757 31.4512L18.2166 31.5791L16.2976 33.1289L15.4294 32.5166L23.4519 26.0869L27.5876 31.4248Z" fill="#F9FAF4" stroke="#0A2712" stroke-width="0.4"/>
</g>
<defs>
<clipPath id="clip0_1158_589">
<rect width="59" height="60" fill="white"/>
</clipPath>
</defs>
</svg>
