<svg preserveAspectRatio="none" width="100%" height="100%" overflow="visible" style="display: block;" viewBox="0 0 134 70" fill="none" xmlns="http://www.w3.org/2000/svg">
<g id="billa-seeklogo 1" clip-path="url(#clip0_0_142)">
<path id="polygon45" d="M6.97879 70.0005L0 16.295L127.021 0.00488281L134 53.7119L6.97879 70.0005Z" fill="var(--fill-0, #F9FAF4)"/>
<path id="path47" d="M68.1655 42.3311L74.4325 41.5213C74.8429 44.6937 75.0209 46.0572 75.5131 49.8788C75.5131 49.8788 67.0497 50.967 60.0132 51.8691C58.6617 41.437 58.4404 39.7378 55.9025 20.1909C61.921 19.4193 62.0958 19.3906 65.1355 19.0009C65.1355 19.0009 67.1427 34.4589 68.1655 42.3311Z" fill="var(--fill-0, #0A2712)"/>
<path id="path49" d="M54.6857 52.5357C51.4937 52.9446 49.5153 53.1992 45.339 53.7353C44.1734 44.7749 41.2219 22.0555 41.2219 22.0555C45.5153 21.5019 47.6364 21.2346 50.567 20.8575C50.567 20.8575 53.3486 42.2659 54.6857 52.5357Z" fill="var(--fill-0, #0A2712)"/>
<path id="path51" d="M87.5709 39.8178L93.8394 39.0159C94.2515 42.1836 94.423 43.555 94.9264 47.3734C94.9264 47.3734 86.4614 48.4569 79.4265 49.3653C78.0686 38.9268 77.8474 37.2324 75.3079 17.6824C81.3295 16.9155 81.5059 16.8885 84.5424 16.4971C84.5408 16.4955 86.5544 31.9535 87.5709 39.8178Z" fill="var(--fill-0, #0A2712)"/>
<path id="path53" d="M30.0364 47.3112C29.8039 47.3923 29.1626 47.5323 28.8275 47.5737L24.4764 48.1337L23.9265 43.8715L28.2504 43.3162C28.2696 43.3147 28.5534 43.2796 28.5534 43.2796C28.8965 43.2335 29.2828 43.1794 29.7718 43.2987C30.8957 43.5771 31.367 44.4983 31.4312 45.2047V45.2079C31.4376 45.2763 31.4408 45.3447 31.4408 45.4131C31.4423 46.2818 30.9181 46.9978 30.0364 47.3112ZM22.4419 32.4545L26.0187 31.9963C26.046 31.9931 26.3666 31.9629 26.3666 31.9629L27.4728 31.9327C28.5245 32.0504 29.3438 32.733 29.4672 33.5889V33.5953C29.6131 34.6883 28.9542 35.7097 27.9361 35.9738C27.9265 35.9753 26.6969 36.2172 26.6969 36.2172L22.9982 36.6897L22.4419 32.4545ZM41.1114 45.4259C40.7955 42.6432 39.4937 40.1979 37.1659 38.7023C38.6424 36.109 39.0833 32.8968 38.0524 29.8517C37.129 27.1056 34.668 24.393 31.4616 23.9905C29.8744 23.7916 28.3305 23.7884 25.8792 24.0477L11.6106 25.8758L15.7629 57.5508L29.3069 55.8118C31.7839 55.4125 34.2849 55.3409 36.1286 54.2129C39.3735 52.2226 41.5683 49.4049 41.1114 45.4259Z" fill="var(--fill-0, #0A2712)"/>
<path id="path55" d="M107.541 36.203L108.839 29.1883L112.182 35.6127L107.541 36.203ZM111.446 13.043L101.987 14.2585C100.262 26.7127 99.361 33.9406 97.4756 47.0408L106.497 45.8889C106.678 44.8866 106.829 43.6361 107.021 42.3601L113.751 41.4962C114.333 42.8931 114.555 43.5263 115.164 44.7768L124.139 43.6234C119.874 33.2008 117.086 26.2291 111.446 13.043Z" fill="var(--fill-0, #0A2712)"/>
</g>
<defs>
<clipPath id="clip0_0_142">
<rect width="134" height="70" fill="white"/>
</clipPath>
</defs>
</svg>
