<svg preserveAspectRatio="none" width="100%" height="100%" overflow="visible" style="display: block;" viewBox="0 0 70 70" fill="none" xmlns="http://www.w3.org/2000/svg">
<g id="Group">
<g id="Vector">
</g>
<path id="Vector_2" fill-rule="evenodd" clip-rule="evenodd" d="M57.2965 18.0146H26.8508V21.8629H57.2965V34.7171H26.8508V38.4354H57.2965V51.2417H12.1696V5.90415H57.2965V18.0146ZM58.6551 64.0959H56.0357L55.3885 62.6H52.4303L51.8155 64.0795L49.293 64.0959L51.8478 55.817H55.5349L58.6551 64.0959ZM19.5424 58.3399H13.9643V59.0833H19.5424V61.2175H13.9643V61.9616H19.5424V64.0959H11.3449V56.1896H19.5424V58.3399ZM26.2041 56.2053C27.4976 56.3349 28.8071 56.9494 29.3893 58.2102C30.0197 59.5848 29.9231 61.5574 28.8881 62.7213C27.9988 63.708 26.8345 64.1122 25.5086 64.0959H21.2078V56.1896L26.2041 56.2053ZM38.7674 58.3399H33.189V59.0833H38.7674V61.2175H33.189V61.9616H38.7674V64.0959H30.5699V56.1896H38.7674V58.3399ZM42.8586 58.8087L45.1701 56.1896H48.6462L45.8005 59.7783L49.1477 64.0959H45.8815L43.9416 61.5738L42.8586 62.8023V64.0959H40.0765V56.1896H42.8586V58.8087Z" fill="var(--fill-0, #F9FAF4)"/>
<g id="Vector_3">
</g>
</g>
</svg>
