<svg preserveAspectRatio="none" width="100%" height="100%" overflow="visible" style="display: block;" viewBox="0 0 59 60" fill="none" xmlns="http://www.w3.org/2000/svg">
<g id="Group">
<path id="Vector" fill-rule="evenodd" clip-rule="evenodd" d="M0 0H59V60H0V0Z" fill="var(--fill-0, #F9FAF4)"/>
<path id="Vector_2" d="M29.5004 2.75581C44.2586 2.75584 56.2816 14.9703 56.2816 29.9999C56.2815 45.0298 44.2585 57.2431 29.5004 57.2431C14.7413 57.2431 2.71926 45.0295 2.71913 29.9999C2.71913 14.9702 14.7415 2.75581 29.5004 2.75581Z" fill="var(--fill-0, #F9FAF4)" stroke="var(--stroke-0, #0A2712)"/>
<path id="Vector_3" fill-rule="evenodd" clip-rule="evenodd" d="M3.69238 29.9999C3.69238 15.5279 15.2695 3.75391 29.5004 3.75391C43.7309 3.75391 55.3083 15.5279 55.3083 29.9999C55.3083 44.4723 43.7309 56.2453 29.5004 56.2453C15.2695 56.2453 3.69238 44.4723 3.69238 29.9999Z" fill="var(--fill-0, #0A2712)"/>
<path id="Vector_4" fill-rule="evenodd" clip-rule="evenodd" d="M42.0875 23.5771H50.6329V25.532H49.2843V32.4998L54.5551 29.5673L54.5737 34.6862H42.0398V32.6636H43.4453L43.4548 25.532H42.0964L42.0875 23.5771Z" fill="var(--fill-0, #F9FAF4)"/>
<path id="Vector_5" fill-rule="evenodd" clip-rule="evenodd" d="M4.7574 23.5771H13.2942V25.5313H11.9547V32.4992L17.2255 29.5673L17.2344 34.6856H4.70996V32.672H6.10572L6.11551 25.5313H4.74853L4.7574 23.5771ZM37.6886 34.6856H28.7901V32.7218H30.3003L30.2715 25.6194H28.7613V23.6929H37.7361C40.3378 23.6833 42.4076 25.5316 42.4366 29.1704C42.4168 32.9235 40.1193 34.6856 37.6886 34.6856ZM35.9124 31.251C36.9473 31.2413 37.8117 30.6412 37.8212 29.0257C37.8212 27.4575 36.9292 26.7705 35.932 26.7705L35.9124 31.251Z" fill="var(--fill-0, #F9FAF4)"/>
<path id="Vector_6" fill-rule="evenodd" clip-rule="evenodd" d="M23.4698 25.1441C25.104 25.1441 26.448 23.7738 26.448 22.0995C26.448 20.4264 25.104 19.0646 23.4698 19.0646C21.8191 19.0646 20.4827 20.4264 20.4827 22.0995C20.4827 23.7738 21.8194 25.1441 23.4698 25.1441Z" fill="var(--fill-0, #F9FAF4)"/>
<path id="Vector_7" d="M27.5876 31.4248L27.7117 31.585L27.8699 31.46L30.45 29.416L31.0066 30.2227L21.6433 37.749L21.0222 36.9473L21.866 36.2793L22.0212 36.1572L21.9001 36L18.5007 31.6123L18.3757 31.4512L18.2166 31.5791L16.2976 33.1289L15.4294 32.5166L23.4519 26.0869L27.5876 31.4248Z" fill="var(--fill-0, #F9FAF4)" stroke="var(--stroke-0, #0A2712)" stroke-width="0.4"/>
</g>
</svg>
