<svg preserveAspectRatio="none" width="100%" height="100%" overflow="visible" style="display: block;" viewBox="0 0 94 60" fill="none" xmlns="http://www.w3.org/2000/svg">
<g id="Frame">
<path id="Vector" d="M28.6897 2.39918C28.8492 2.24129 28.9992 2.17773 29.1282 2.17773C29.3595 2.17773 29.5221 2.38379 29.5146 2.63523C29.5075 2.78444 29.4432 2.94826 29.2995 3.09194C23.5517 10.2387 19.3716 18.5909 19.3716 30.1784C19.3716 41.756 23.5517 49.948 29.2995 57.0912C29.4432 57.2352 29.5075 57.4018 29.5146 57.5483C29.5221 57.7965 29.3595 58.0062 29.1282 58.0062C28.9992 58.0062 28.8492 57.9422 28.6897 57.7835L4.20497 34.1013C2.98302 33.0541 2.20312 31.8323 2.20312 30.0939C2.20312 28.348 2.98302 27.1294 4.20497 26.0905L28.6897 2.39918Z" fill="var(--fill-0, #F9FAF4)"/>
<path id="Vector_2" d="M47.5155 0.39454C37.9286 0.39454 34.1811 13.983 34.1811 30.179C34.1811 46.379 37.9286 59.7866 47.5155 59.7866C53.2677 59.7866 58.1713 56.4168 58.1883 53.6477C58.1894 53.0426 57.957 52.4611 57.4478 51.9539C54.7229 49.3194 53.6557 46.6849 53.6454 44.3627C53.63 39.9267 57.479 36.6207 61.0249 36.6207C65.9028 36.6207 68.7789 40.456 68.7789 45.4198C68.7789 50.1219 66.7711 54.0432 64.5932 57.1778C64.5088 57.3089 64.4705 57.4486 64.4705 57.5749C64.4732 57.8224 64.6157 58.0238 64.8328 58.0238C64.9654 58.0238 65.1201 57.9535 65.2879 57.7838L89.7797 34.1015C91.0025 33.0547 91.7832 31.833 91.7832 30.0945C91.7832 28.3486 91.0025 27.1297 89.7797 26.0907L65.2879 2.3998C65.1201 2.23204 64.9654 2.16178 64.8328 2.16178C64.6141 2.16178 64.4732 2.36467 64.4705 2.61138C64.4705 2.73849 64.5088 2.87941 64.5932 3.01086C66.7711 6.14151 68.7789 10.0676 68.7789 14.7661C68.7789 19.7264 65.9028 23.5656 61.0249 23.5656C57.479 23.5656 53.63 20.262 53.6454 15.8244C53.6557 13.5002 54.7229 10.8661 57.4478 8.23441C57.957 7.72204 58.1894 7.14494 58.1883 6.5398C58.1713 3.76678 53.2677 0.39454 47.5155 0.39454Z" fill="var(--fill-0, #F9FAF4)"/>
</g>
</svg>
