<svg width="59" height="60" viewBox="0 0 59 60" fill="none" xmlns="http://www.w3.org/2000/svg">
<g clip-path="url(#clip0_1158_574)">
<path fill-rule="evenodd" clip-rule="evenodd" d="M0 0H59V60H0V0Z" fill="#F9FAF4"/>
<path fill-rule="evenodd" clip-rule="evenodd" d="M7.00879 45.9619H51.9909V57.3533H7.00879V45.9619Z" fill="#0A2712"/>
<path fill-rule="evenodd" clip-rule="evenodd" d="M16.779 49.0303C16.8745 49.2279 16.9241 49.443 16.9176 49.7064L10.7999 49.7089C10.6132 49.7089 10.3205 49.8172 10.2131 50.0653C10.0797 50.374 10.2333 50.7286 10.5366 50.8646C10.6575 50.9188 10.8718 50.9113 10.8718 50.9113H15.3223C16.119 50.9686 16.8289 51.4887 17.1025 52.3453C17.3409 53.0912 17.2179 53.7115 16.7327 54.3207C16.172 55.0236 15.4049 55.0326 14.5595 55.0313L9.63522 55.0257C9.10079 55.0251 8.65084 54.49 8.57493 53.9406L8.57156 53.662L15.0728 53.6683C15.2902 53.6689 15.5693 53.3635 15.5767 53.0507C15.5849 52.7133 15.3557 52.3924 15.0236 52.3924H10.3404C9.53023 52.3924 8.70471 51.6198 8.57156 50.653C8.46382 49.871 8.71665 49.2796 9.31352 48.7744C9.76408 48.3931 10.1063 48.2851 10.7365 48.2838L15.0679 48.2782C15.7377 48.2655 16.4655 48.3828 16.779 49.0303ZM26.9049 48.3072C27.9517 48.3078 28.8008 49.4029 28.7724 50.548C28.7451 51.6534 27.7972 52.6741 26.9282 52.6741H23.2753C22.7406 52.6078 22.3305 52.2137 22.1193 51.7573C22.0473 51.5793 22.0433 51.3287 22.0228 51.1426L22.2117 51.1463H26.6273C26.8177 51.1463 26.9995 50.9689 27.0898 50.7463C27.1724 50.5428 27.1669 50.3772 27.0665 50.1823C26.9554 49.966 26.7549 49.8296 26.5578 49.8296H21.6341L21.5879 49.8769V54.3107C21.5879 54.7229 21.2337 55.027 20.8159 55.0189C20.4502 55.0123 20.1083 54.7101 20.1083 54.3185V49.571C20.1083 49.1781 20.2549 48.9472 20.5294 48.6826C20.8166 48.4052 21.1949 48.3006 21.4725 48.3006L26.9049 48.3072ZM34.8329 50.097C35.3177 50.7827 35.8521 51.4442 36.3149 52.1573H33.0484L34.6734 50.0886C34.6734 50.0886 34.7178 50.0186 34.7594 50.0223C34.7992 50.026 34.8329 50.097 34.8329 50.097ZM36.1677 49.3282C37.0107 50.5197 38.7119 52.7547 39.5741 54.015C39.6828 54.3002 39.5555 54.6058 39.4128 54.8377C39.1802 55.0584 38.7988 55.1051 38.5341 54.9787C38.1169 54.5999 37.8279 54.1299 37.494 53.7094L31.8761 53.6972L31.2119 54.6127C31.0019 54.9015 30.7359 55.0995 30.327 55.026C30.1142 54.9822 29.9116 54.7997 29.8409 54.603C29.7325 54.3478 29.7442 54.1062 29.8874 53.874L33.4475 49.0779C33.7466 48.6231 34.0692 48.2985 34.6272 48.3016C35.5041 48.3134 35.5635 48.5372 36.1677 49.3282ZM48.7987 48.3072C49.5715 48.3078 50.2945 48.903 50.5844 49.7608C50.8954 50.6807 50.6082 51.4946 49.9088 52.1573C49.7527 52.3046 49.4693 52.4864 49.4693 52.4864L50.4347 53.8921C50.5225 54.0203 50.5513 54.2756 50.4687 54.4969C50.3928 54.7011 50.2911 54.8215 50.0931 54.9078C49.8241 55.0257 49.4684 54.9162 49.3542 54.7733C49.3542 54.7733 48.4304 53.6297 47.9199 52.9797C47.8296 52.8835 47.7837 52.7955 47.6885 52.6977L45.2279 52.7099C44.6175 52.713 43.897 51.9712 43.897 51.3804V51.1519L48.4794 51.1463C48.6511 51.1457 48.8434 50.9829 48.9367 50.77C49.0215 50.5773 49.0203 50.4223 48.9367 50.2296C48.8375 49.9987 48.611 49.8349 48.4332 49.8349L43.4492 49.8495L43.4348 49.9V54.4172C43.4348 54.7176 43.0265 55.1048 42.6264 55.0665C42.257 55.0307 41.9546 54.6482 41.9546 54.382L41.9607 49.5949C41.9613 49.0956 42.1036 48.9017 42.4134 48.6278C42.7158 48.3604 42.9885 48.3013 43.3886 48.3013L48.7987 48.3072Z" fill="#F9FAF4"/>
<path fill-rule="evenodd" clip-rule="evenodd" d="M18.065 27.6418C17.4704 28.4378 16.8603 29.2217 16.2352 29.9932L27.419 29.9702C27.3532 31.4811 27.7031 33.3229 27.011 34.6194C26.3156 36.0413 24.6832 36.7472 23.1742 36.7777C18.6643 36.3528 15.665 32.3483 13.9497 28.5592C13.8207 28.2583 13.7035 27.9523 13.5986 27.6418C12.0559 23.0926 12.8882 17.2574 15.8272 13.533C20.1948 7.67762 27.9069 5.31225 35.0926 7.5556C39.4752 8.94327 43.3726 12.3875 45.2969 16.7706C46.6856 20.0804 46.7276 24.07 45.5993 27.6421C44.8754 29.9312 43.6713 32.0488 42.0316 33.7061C40.0062 35.4392 37.8229 37.2658 35.0112 36.6949C33.4771 36.332 32.3755 35.2528 31.9904 33.7889C31.6611 32.5139 31.7428 31.2903 31.909 29.9702L43.3208 29.9502L43.0111 29.5552C42.4818 28.9255 41.962 28.2876 41.4519 27.6418C36.4229 21.2728 32.3997 14.211 29.6228 6.80855C26.7077 14.1294 22.7518 21.3728 18.065 27.6418ZM9.1625 27.6418C10.939 34.418 16.3366 39.9733 23.0108 41.9243C31.4156 44.6103 40.9236 41.7475 46.3578 35.2002C48.1071 33.0431 49.3679 30.4252 50.0667 27.6418C51.2402 22.9677 50.8282 17.8264 48.4799 13.6155C46.8001 10.6444 44.3309 7.84322 41.5415 6.06087C35.2723 1.86769 25.9685 1.53556 19.4188 5.06479C12.7064 8.54857 8.07498 15.8315 8.56165 23.7437C8.62622 25.061 8.82762 26.3676 9.1625 27.6418Z" fill="#0A2712"/>
</g>
<defs>
<clipPath id="clip0_1158_574">
<rect width="59" height="60" fill="white"/>
</clipPath>
</defs>
</svg>
