<svg preserveAspectRatio="none" width="100%" height="100%" overflow="visible" style="display: block;" viewBox="0 0 59 60" fill="none" xmlns="http://www.w3.org/2000/svg">
<g id="Group">
<path id="Vector" fill-rule="evenodd" clip-rule="evenodd" d="M0 0H59V60H0V0Z" fill="var(--fill-0, #F9FAF4)"/>
<path id="Vector_2" fill-rule="evenodd" clip-rule="evenodd" d="M7.00879 45.9619H51.9909V57.3533H7.00879V45.9619Z" fill="var(--fill-0, #0A2712)"/>
<path id="Vector_3" fill-rule="evenodd" clip-rule="evenodd" d="M16.779 49.0301C16.8745 49.2277 16.9241 49.4428 16.9177 49.7062L10.8 49.7086C10.6132 49.7086 10.3206 49.817 10.2132 50.0651C10.0797 50.3738 10.2334 50.7284 10.5367 50.8644C10.6576 50.9186 10.8719 50.9111 10.8719 50.9111H15.3224C16.1191 50.9684 16.8289 51.4885 17.1026 52.3451C17.341 53.091 17.218 53.7113 16.7328 54.3205C16.1721 55.0233 15.405 55.0324 14.5596 55.0311L9.6353 55.0255C9.10087 55.0249 8.65092 54.4898 8.57501 53.9404L8.57164 53.6618L15.0729 53.6681C15.2902 53.6687 15.5694 53.3633 15.5767 53.0505C15.585 52.7131 15.3557 52.3921 15.0236 52.3921H10.3405C9.53031 52.3921 8.70479 51.6196 8.57164 50.6527C8.4639 49.8708 8.71673 49.2794 9.3136 48.7742C9.76416 48.3929 10.1064 48.2849 10.7366 48.2836L15.068 48.278C15.7377 48.2653 16.4656 48.3826 16.779 49.0301ZM26.905 48.307C27.9518 48.3076 28.8009 49.4027 28.7724 50.5478C28.7452 51.6532 27.7972 52.6738 26.9283 52.6738H23.2754C22.7407 52.6075 22.3305 52.2135 22.1193 51.7571C22.0474 51.5791 22.0434 51.3285 22.0229 51.1424L22.2118 51.1461H26.6274C26.8178 51.1461 26.9996 50.9687 27.0899 50.7461C27.1725 50.5425 27.167 50.3769 27.0666 50.1821C26.9555 49.9658 26.755 49.8294 26.5579 49.8294H21.6342L21.588 49.8767V54.3105C21.588 54.7227 21.2338 55.0268 20.816 55.0187C20.4502 55.0121 20.1083 54.7099 20.1083 54.3183V49.5708C20.1083 49.1779 20.255 48.947 20.5295 48.6824C20.8166 48.405 21.195 48.3004 21.4726 48.3004L26.905 48.307ZM34.8329 50.0968C35.3178 50.7825 35.8522 51.444 36.315 52.1571H33.0485L34.6735 50.0884C34.6735 50.0884 34.7179 50.0184 34.7595 50.0221C34.7993 50.0258 34.8329 50.0968 34.8329 50.0968ZM36.1678 49.328C37.0107 50.5195 38.712 52.7545 39.5742 54.0148C39.6829 54.2999 39.5556 54.6056 39.4129 54.8375C39.1803 55.0582 38.7989 55.1049 38.5341 54.9785C38.1169 54.5997 37.828 54.1297 37.4941 53.7091L31.8761 53.697L31.2119 54.6125C31.002 54.9013 30.736 55.0993 30.327 55.0258C30.1143 54.9819 29.9117 54.7995 29.841 54.6028C29.7326 54.3476 29.7443 54.106 29.8875 53.8738L33.4476 49.0777C33.7466 48.6229 34.0693 48.2983 34.6273 48.3014C35.5042 48.3132 35.5636 48.537 36.1678 49.328ZM48.7987 48.307C49.5716 48.3076 50.2946 48.9028 50.5845 49.7606C50.8954 50.6804 50.6083 51.4944 49.9089 52.1571C49.7528 52.3044 49.4694 52.4861 49.4694 52.4861L50.4348 53.8919C50.5226 54.0201 50.5514 54.2754 50.4688 54.4967C50.3928 54.7009 50.2912 54.8213 50.0932 54.9075C49.8241 55.0255 49.4685 54.916 49.3543 54.7731C49.3543 54.7731 48.4305 53.6295 47.92 52.9795C47.8297 52.8833 47.7838 52.7952 47.6886 52.6975L45.2279 52.7096C44.6176 52.7128 43.8971 51.971 43.8971 51.3802V51.1517L48.4795 51.1461C48.6512 51.1455 48.8434 50.9827 48.9368 50.7698C49.0216 50.5771 49.0204 50.4221 48.9368 50.2294C48.8376 49.9984 48.6111 49.8347 48.4333 49.8347L43.4493 49.8493L43.4349 49.8998V54.417C43.4349 54.7174 43.0266 55.1046 42.6265 55.0663C42.2571 55.0305 41.9547 54.6479 41.9547 54.3818L41.9608 49.5947C41.9614 49.0954 42.1037 48.9015 42.4135 48.6276C42.7159 48.3602 42.9886 48.3011 43.3887 48.3011L48.7987 48.307Z" fill="var(--fill-0, #F9FAF4)"/>
<path id="Vector_4" fill-rule="evenodd" clip-rule="evenodd" d="M18.0649 27.6418C17.4702 28.4377 16.8602 29.2217 16.2351 29.9932L27.4189 29.9701C27.3531 31.481 27.703 33.3229 27.0109 34.6193C26.3155 36.0412 24.6831 36.7472 23.1741 36.7777C18.6642 36.3528 15.6649 32.3483 13.9496 28.5591C13.8205 28.2582 13.7034 27.9522 13.5985 27.6418C12.0558 23.0925 12.8881 17.2574 15.8271 13.533C20.1947 7.67758 27.9068 5.31221 35.0925 7.55556C39.475 8.94322 43.3724 12.3875 45.2968 16.7705C46.6855 20.0803 46.7275 24.0699 45.5992 27.6421C44.8753 29.9312 43.6712 32.0488 42.0315 33.706C40.0061 35.4392 37.8228 37.2658 35.0111 36.6949C33.477 36.3319 32.3754 35.2528 31.9903 33.7888C31.661 32.5139 31.7427 31.2902 31.9089 29.9701L43.3207 29.9502L43.011 29.5552C42.4817 28.9254 41.9619 28.2876 41.4518 27.6418C36.4228 21.2728 32.3996 14.2109 29.6227 6.8085C26.7076 14.1294 22.7517 21.3727 18.0649 27.6418ZM9.16239 27.6418C10.9389 34.4179 16.3364 39.9732 23.0107 41.9243C31.4155 44.6103 40.9235 41.7475 46.3577 35.2001C48.107 33.043 49.3678 30.4252 50.0666 27.6418C51.2401 22.9677 50.8281 17.8264 48.4798 13.6155C46.8 10.6443 44.3308 7.84318 41.5414 6.06082C35.2722 1.86765 25.9684 1.53552 19.4187 5.06474C12.7063 8.54853 8.07487 15.8314 8.56154 23.7437C8.62611 25.061 8.82751 26.3676 9.16239 27.6418Z" fill="var(--fill-0, #0A2712)"/>
</g>
</svg>
