<svg width="184" height="28" viewBox="0 0 184 28" fill="none" xmlns="http://www.w3.org/2000/svg">
<g clip-path="url(#clip0_1158_559)">
<path fill-rule="evenodd" clip-rule="evenodd" d="M30.9432 17.7686C31.412 21.5914 30.3301 25.1978 25.1368 26.7125C22.7205 27.3978 18.6813 27.7223 15.1109 27.6502C9.05214 27.542 0.829479 26.9289 0 26.8568L0.0360643 16.7227C4.61623 17.8768 11.6127 19.6079 15.6519 20.0767C16.0847 20.1128 18.537 20.5816 19.8354 20.257C20.4124 20.1128 20.6288 19.2112 20.3763 18.6702C20.2321 18.3817 19.9075 18.1653 19.619 18.0571C19.1862 17.8768 17.2387 17.3719 14.1733 16.4703C9.19639 15.0998 5.84241 13.5491 3.67856 12.2147C1.5147 10.8803 0.25245 9.54593 0.25245 7.45421C0.25245 4.35268 2.23599 2.54946 6.0588 1.32328C8.15053 0.710184 11.4324 0.313477 15.0388 0.313477H15.2552C15.4355 0.313477 15.5798 0.313477 15.7601 0.313477L18.2125 0.349541C19.7993 0.385605 171.269 5.39854 171.305 5.39854L172.027 6.73292C172.027 6.73292 15.9765 5.83131 15.7601 5.83131C15.3273 5.83131 11.6127 5.93951 10.4947 6.40834C9.84555 6.69686 9.88161 7.41814 10.3144 7.70666C11.793 8.60826 13.9208 9.00497 16.2289 9.50987C22.3599 10.9164 30.294 12.7557 30.9432 17.7686ZM56.08 19.139C54.2768 20.1849 51.5719 20.6898 47.8934 20.6898H46.4147H42.9165V27.4338H33.7562V9.25742H46.4147H48.9032C52.185 9.25742 54.6735 9.72626 56.2964 10.7C57.9193 11.6737 58.7487 13.0442 58.7487 14.8474C58.7487 16.6867 57.8832 18.1292 56.08 19.139ZM49.913 14.9916C49.913 14.4146 49.5884 13.9458 48.9753 13.5491C48.4704 13.2245 47.6409 13.0442 46.4147 12.972C46.1262 12.972 45.8377 12.936 45.5131 12.936H42.9165V17.0112H45.1525C45.6213 17.0112 46.018 17.0112 46.4147 16.9752C47.4967 16.9031 48.3261 16.7227 48.831 16.4342C49.5523 16.0736 49.913 15.5687 49.913 14.9916ZM78.0792 9.25742L89.1509 27.4699H79.63L78.1874 24.4766H73.0302H67.8009L66.3583 27.4699H57.0537L68.1254 9.25742H72.9941H78.0792ZM76.276 20.5095L73.0302 13.9818V13.9458L69.7844 20.4734H73.0302H76.276V20.5095ZM101.665 15.3883L95.7146 9.25742H85.6166L97.0851 19.8243V27.4338H106.209V19.8243L117.678 9.25742H107.616L101.665 15.3883ZM151.398 9.25742H139.28L129.723 16.1457V9.25742H120.599V27.4699H129.723V22.9979L134.448 19.9685L140.651 27.4699H151.867L140.651 16.1096L151.398 9.25742ZM184 27.4699H174.479L173.036 24.4766H167.879H162.65L161.207 27.4699H151.903L163.011 9.25742H167.879H172.928L184 27.4699ZM171.125 20.5095L167.879 13.9818V13.9458L164.633 20.4734H167.879H171.125V20.5095Z" fill="#F9FAF4"/>
</g>
<defs>
<clipPath id="clip0_1158_559">
<rect width="184" height="28" fill="white"/>
</clipPath>
</defs>
</svg>
