<svg preserveAspectRatio="none" width="100%" height="100%" overflow="visible" style="display: block;" viewBox="0 0 184 28" fill="none" xmlns="http://www.w3.org/2000/svg">
<g id="Spayka_ideVadFEMu_1 1" clip-path="url(#clip0_0_126)">
<path id="Vector" fill-rule="evenodd" clip-rule="evenodd" d="M30.9432 17.7687C31.412 21.5915 30.3301 25.198 25.1368 26.7127C22.7205 27.3979 18.6813 27.7225 15.1109 27.6503C9.05214 27.5421 0.829482 26.929 3.8567e-06 26.8569L0.0360681 16.7229C4.61623 17.8769 11.6127 19.608 15.6519 20.0768C16.0847 20.1129 18.537 20.5817 19.8354 20.2572C20.4124 20.1129 20.6288 19.2113 20.3763 18.6703C20.2321 18.3818 19.9075 18.1654 19.619 18.0572C19.1862 17.8769 17.2387 17.372 14.1733 16.4704C9.1964 15.1 5.84242 13.5492 3.67856 12.2148C1.5147 10.8804 0.252454 9.54606 0.252454 7.45433C0.252454 4.3528 2.23599 2.54959 6.0588 1.3234C8.15053 0.71031 11.4324 0.313603 15.0388 0.313603H15.2552C15.4355 0.313603 15.5798 0.313603 15.7601 0.313603L18.2125 0.349667C19.7993 0.385732 171.269 5.39867 171.305 5.39867L172.027 6.73305C172.027 6.73305 15.9765 5.83144 15.7601 5.83144C15.3273 5.83144 11.6127 5.93963 10.4947 6.40847C9.84555 6.69698 9.88162 7.41827 10.3144 7.70678C11.793 8.60839 13.9208 9.0051 16.2289 9.51C22.3599 10.9165 30.294 12.7558 30.9432 17.7687ZM56.08 19.1392C54.2768 20.185 51.5719 20.6899 47.8934 20.6899H46.4147H42.9165V27.4339H33.7562V9.25755H46.4147H48.9032C52.185 9.25755 54.6735 9.72638 56.2964 10.7001C57.9193 11.6739 58.7487 13.0443 58.7487 14.8475C58.7487 16.6868 57.8832 18.1294 56.08 19.1392ZM49.913 14.9918C49.913 14.4147 49.5884 13.9459 48.9753 13.5492C48.4704 13.2246 47.6409 13.0443 46.4147 12.9722C46.1262 12.9722 45.8377 12.9361 45.5131 12.9361H42.9165V17.0114H45.1525C45.6213 17.0114 46.018 17.0114 46.4147 16.9753C47.4967 16.9032 48.3261 16.7229 48.831 16.4343C49.5523 16.0737 49.913 15.5688 49.913 14.9918ZM78.0792 9.25755L89.1509 27.47H79.63L78.1874 24.4767H73.0302H67.8009L66.3583 27.47H57.0537L68.1254 9.25755H72.9941H78.0792ZM76.276 20.5096L73.0302 13.982V13.9459L69.7844 20.4735H73.0302H76.276V20.5096ZM101.665 15.3885L95.7146 9.25755H85.6166L97.0851 19.8244V27.4339H106.209V19.8244L117.678 9.25755H107.616L101.665 15.3885ZM151.398 9.25755H139.28L129.723 16.1458V9.25755H120.599V27.47H129.723V22.998L134.448 19.9686L140.651 27.47H151.867L140.651 16.1098L151.398 9.25755ZM184 27.47H174.479L173.036 24.4767H167.879H162.65L161.207 27.47H151.903L163.011 9.25755H167.879H172.928L184 27.47ZM171.125 20.5096L167.879 13.982V13.9459L164.633 20.4735H167.879H171.125V20.5096Z" fill="var(--fill-0, #F9FAF4)"/>
</g>
<defs>
<clipPath id="clip0_0_126">
<rect width="184" height="28" fill="white"/>
</clipPath>
</defs>
</svg>
