<svg preserveAspectRatio="none" width="100%" height="100%" overflow="visible" style="display: block;" viewBox="0 0 44 44" fill="none" xmlns="http://www.w3.org/2000/svg">
<g id="qlementine-icons:facebook-16">
<path id="Vector" fill-rule="evenodd" clip-rule="evenodd" d="M8.55255 41.2493C7.0153 41.2493 5.55505 40.6388 4.45505 39.5525C3.35505 38.4663 2.7583 36.9923 2.7583 35.455V8.53253C2.7583 6.99528 3.3688 5.53503 4.45505 4.43503C5.5413 3.33503 7.0153 2.73828 8.55255 2.73828H35.4751C37.0123 2.73828 38.4726 3.34878 39.5726 4.43503C40.6726 5.52128 41.2693 6.99528 41.2693 8.53253V35.455C41.2693 36.9923 40.6588 38.4525 39.5726 39.5525C38.4863 40.6525 37.0123 41.2493 35.4751 41.2493H8.55255ZM32.0651 24.9968H27.9951V38.4443H35.4751C35.8679 38.4454 36.2571 38.3688 36.6203 38.219C36.9834 38.0691 37.3134 37.849 37.5912 37.5712C37.869 37.2934 38.0891 36.9634 38.239 36.6003C38.3888 36.2371 38.4654 35.8479 38.4643 35.455V8.53253C38.4647 8.13988 38.3876 7.751 38.2375 7.38817C38.0874 7.02533 37.8672 6.69566 37.5896 6.41801C37.3119 6.14036 36.9823 5.92018 36.6194 5.77009C36.2566 5.61999 35.8677 5.54292 35.4751 5.54328H8.55255C7.76042 5.54546 7.00136 5.8611 6.44124 6.42122C5.88111 6.98134 5.56548 7.7404 5.5633 8.53253V35.455C5.56548 36.2472 5.88111 37.0062 6.44124 37.5663C7.00136 38.1265 7.76042 38.4421 8.55255 38.4443H23.5126V24.9968H19.0301V20.5143H23.5126V18.1053C23.5126 13.5403 25.7346 11.5328 29.5351 11.5328C31.3143 11.5328 32.2713 11.662 32.7251 11.7253L32.7526 11.728V16.018H30.1676C28.8641 16.018 28.2481 16.5763 28.0611 17.701C28.0161 17.994 27.995 18.2901 27.9978 18.5865V20.5033H32.7003L32.0596 24.9858L32.0651 24.9968Z" fill="var(--fill-0, #F9FAF4)"/>
</g>
</svg>
