<svg width="69" height="65" viewBox="0 0 69 65" fill="none" xmlns="http://www.w3.org/2000/svg">
<g clip-path="url(#clip0_1308_204)">
<path d="M35.7458 38.2468C34.5147 35.5717 32.5781 33.252 30.1576 31.4963C25.9901 28.4735 23.188 23.7854 22.4201 18.5322H15.8249C15.5262 20.5706 14.9185 22.5446 14.0252 24.3781M11.8742 27.8329C10.7799 29.2352 9.50526 30.4683 8.08742 31.4963C3.78395 34.6176 1.01074 39.5212 1.01074 45.0358C1.01074 54.4659 9.11959 58.8731 19.1224 58.8731C24.2259 58.8731 28.8362 57.7259 32.1283 55.3497" stroke="#F7F6F0" stroke-width="2" stroke-miterlimit="10" stroke-linecap="round" stroke-linejoin="round"/>
<path d="M17.0425 30.9371C16.8107 31.7425 16.5515 32.4724 16.2676 33.1091C15.1543 35.6055 14.4368 39.5271 14.4368 43.9375C14.4368 45.5244 14.5307 46.9312 14.7014 48.1671M23.5434 48.1671C23.7142 46.9312 23.8081 45.5244 23.8081 43.9375C23.8081 39.5271 23.0906 35.6055 21.9773 33.1091C21.6934 32.4724 21.4342 31.7425 21.2024 30.9371M35.2322 41.4181L36.0037 41.9204M41.1669 41.9204L40.6921 42.3329M44.5496 42.897H45.0244M51.6712 42.1266L51.0184 42.6149M48.8225 45.2481L49.238 45.9356M45.5585 46.6922L44.7869 47.2373M38.9117 45.5918L39.3865 45.9356M40.6921 48.8289L39.98 49.2036M64.1143 43.4975C64.3602 43.4495 64.6079 43.4078 64.8573 43.3739L65.5341 43.2818C66.938 43.0906 67.9893 41.8261 67.9893 40.3284V39.6041C67.9893 39.2267 67.9221 38.8643 67.7998 38.5299H28.1769C28.1594 39.0085 28.1506 39.4874 28.1507 39.9663C28.1507 50.549 32.3164 59.1279 41.2298 59.1279C46.8823 59.1279 51.8554 55.6777 54.7378 50.4543C56.088 48.0075 58.0678 46.068 60.4014 44.8212M22.3025 17.5765L22.1699 16.2209C22.0393 14.8868 20.9768 13.873 19.7091 13.873H18.5357C17.2679 13.873 16.2054 14.8868 16.0748 16.2209L15.9422 17.5765C15.9106 17.896 15.8714 18.2145 15.8247 18.5319H22.42C22.3738 18.2154 22.3339 17.897 22.3025 17.5765Z" stroke="#F7F6F0" stroke-width="2" stroke-miterlimit="10" stroke-linecap="round" stroke-linejoin="round"/>
<path d="M33.6105 48.5719C37.1456 53.1055 43.4542 54.9275 48.9322 51.7287C49.0008 51.6887 49.0695 51.648 49.1381 51.6071C51.1237 50.4203 52.7524 48.6652 53.8511 46.5509C55.2128 43.9304 56.3092 41.2718 56.8294 38.5303H30.8357V40.3345C30.8357 41.9869 31.1186 43.5396 31.626 44.9577" stroke="#F7F6F0" stroke-width="2" stroke-miterlimit="10" stroke-linecap="round" stroke-linejoin="round"/>
</g>
<defs>
<clipPath id="clip0_1308_204">
<rect width="69" height="65" fill="white"/>
</clipPath>
</defs>
</svg>
