<svg preserveAspectRatio="none" width="100%" height="100%" overflow="visible" style="display: block;" viewBox="0 0 69 65" fill="none" xmlns="http://www.w3.org/2000/svg">
<g id="Frame">
<g id="Fig">
<path id="Vector" d="M35.7458 38.246C34.5147 35.571 32.5781 33.2512 30.1576 31.4955C25.9901 28.4727 23.188 23.7846 22.4201 18.5314H15.8249C15.5262 20.5698 14.9185 22.5438 14.0252 24.3773M11.8742 27.8321C10.7799 29.2344 9.50526 30.4675 8.08742 31.4955C3.78395 34.6168 1.01074 39.5204 1.01074 45.035C1.01074 54.4651 9.11959 58.8724 19.1224 58.8724C24.2259 58.8724 28.8362 57.7252 32.1283 55.349" stroke="var(--stroke-0, #F7F6F0)" stroke-width="2" stroke-miterlimit="10" stroke-linecap="round" stroke-linejoin="round"/>
<path id="Vector_2" d="M17.0425 30.9366C16.8107 31.742 16.5515 32.4719 16.2676 33.1086C15.1543 35.605 14.4368 39.5266 14.4368 43.937C14.4368 45.5239 14.5307 46.9307 14.7014 48.1666M23.5434 48.1666C23.7142 46.9307 23.8081 45.5239 23.8081 43.937C23.8081 39.5266 23.0906 35.605 21.9773 33.1086C21.6934 32.4719 21.4342 31.742 21.2024 30.9366M35.2322 41.4177L36.0037 41.92M41.1669 41.92L40.6921 42.3324M44.5496 42.8965H45.0244M51.6712 42.1261L51.0184 42.6145M48.8225 45.2476L49.238 45.9351M45.5585 46.6918L44.7869 47.2368M38.9117 45.5914L39.3865 45.9351M40.6921 48.8284L39.98 49.2031M64.1143 43.497C64.3602 43.449 64.6079 43.4073 64.8573 43.3734L65.5341 43.2813C66.938 43.0901 67.9893 41.8256 67.9893 40.3279V39.6036C67.9893 39.2262 67.9221 38.8638 67.7998 38.5295H28.1769C28.1594 39.008 28.1506 39.4869 28.1507 39.9658C28.1507 50.5485 32.3164 59.1274 41.2298 59.1274C46.8823 59.1274 51.8554 55.6772 54.7378 50.4538C56.088 48.0071 58.0678 46.0676 60.4014 44.8207M22.3025 17.576L22.1699 16.2204C22.0393 14.8863 20.9768 13.8726 19.7091 13.8726H18.5357C17.2679 13.8726 16.2054 14.8863 16.0748 16.2204L15.9422 17.576C15.9106 17.8955 15.8714 18.2141 15.8247 18.5314H22.42C22.3738 18.2149 22.3339 17.8965 22.3025 17.576Z" stroke="var(--stroke-0, #F7F6F0)" stroke-width="2" stroke-miterlimit="10" stroke-linecap="round" stroke-linejoin="round"/>
<path id="Vector_3" d="M33.6105 48.5711C37.1456 53.1046 43.4542 54.9267 48.9322 51.7279C49.0008 51.6878 49.0695 51.6472 49.1381 51.6063C51.1237 50.4195 52.7524 48.6643 53.8511 46.55C55.2128 43.9296 56.3093 41.2709 56.8295 38.5295H30.8357V40.3336C30.8357 41.9861 31.1186 43.5388 31.626 44.9569" stroke="var(--stroke-0, #F7F6F0)" stroke-width="2" stroke-miterlimit="10" stroke-linecap="round" stroke-linejoin="round"/>
</g>
</g>
</svg>
