<svg preserveAspectRatio="none" width="100%" height="100%" overflow="visible" style="display: block;" viewBox="0 0 40.8854 40.8823" fill="none" xmlns="http://www.w3.org/2000/svg">
<g id="Group">
<path id="Vector" d="M31.3532 10.3284C31.1449 10.3284 30.945 10.2456 30.7977 10.0983C30.6503 9.95092 30.5675 9.75107 30.5675 9.54269C30.5675 9.33431 30.6503 9.13446 30.7977 8.98711C30.945 8.83976 31.1449 8.75698 31.3532 8.75698M31.3532 10.3284C31.5616 10.3284 31.7615 10.2456 31.9088 10.0983C32.0562 9.95092 32.139 9.75107 32.139 9.54269C32.139 9.33431 32.0562 9.13446 31.9088 8.98711C31.7615 8.83976 31.5616 8.75698 31.3532 8.75698" stroke="var(--stroke-0, #F9FAF4)" stroke-width="3.14286" stroke-linecap="round" stroke-linejoin="round"/>
<path id="Vector_2" d="M1.57457 9.658C1.57457 7.51331 2.42655 5.45646 3.94307 3.93993C5.4596 2.4234 7.51645 1.57143 9.66114 1.57143H31.2274C32.2894 1.57143 33.3409 1.78059 34.322 2.18698C35.3031 2.59337 36.1946 3.18902 36.9455 3.93993C37.6964 4.69084 38.2921 5.58229 38.6984 6.5634C39.1048 7.54451 39.314 8.59606 39.314 9.658V31.2243C39.314 33.369 38.462 35.4258 36.9455 36.9424C35.429 38.4589 33.3721 39.3109 31.2274 39.3109H9.658C7.51331 39.3109 5.45646 38.4589 3.93993 36.9424C2.4234 35.4258 1.57143 33.369 1.57143 31.2243L1.57457 9.658Z" stroke="var(--stroke-0, #F9FAF4)" stroke-width="3.14286" stroke-linecap="round" stroke-linejoin="round"/>
<path id="Vector_3" d="M12.43 20.4411C12.43 21.4936 12.6373 22.5357 13.0401 23.5081C13.4428 24.4804 14.0331 25.3639 14.7773 26.1081C15.5215 26.8523 16.405 27.4426 17.3773 27.8454C18.3497 28.2481 19.3918 28.4554 20.4443 28.4554C21.4967 28.4554 22.5389 28.2481 23.5112 27.8454C24.4836 27.4426 25.367 26.8523 26.1112 26.1081C26.8554 25.3639 27.4458 24.4804 27.8485 23.5081C28.2513 22.5357 28.4586 21.4936 28.4586 20.4411C28.4586 18.3156 27.6142 16.2772 26.1112 14.7742C24.6083 13.2712 22.5698 12.4269 20.4443 12.4269C18.3188 12.4269 16.2803 13.2712 14.7773 14.7742C13.2744 16.2772 12.43 18.3156 12.43 20.4411Z" stroke="var(--stroke-0, #F9FAF4)" stroke-width="3.14286" stroke-linecap="round" stroke-linejoin="round"/>
</g>
</svg>
