<svg width="69" height="65" viewBox="0 0 69 65" fill="none" xmlns="http://www.w3.org/2000/svg">
<g clip-path="url(#clip0_1426_1453)">
<path d="M58.5044 27.3212C58.5091 27.2839 58.5091 27.2462 58.5044 27.2089V27.168C58.3453 24.8249 57.452 22.5915 55.9512 20.785C50.8448 14.3204 39.1972 11.6191 34.6269 12.0429C33.038 12.155 31.4818 12.5492 30.0312 13.2072H29.9852C28.9084 13.7018 27.9713 14.4563 27.2584 15.4029C27.1031 15.6289 26.9649 15.8662 26.8448 16.1127V16.1587C26.2087 17.1944 25.7529 18.3305 25.4967 19.5187C24.989 19.5853 24.4759 19.6024 23.9648 19.5697C14.3393 18.6506 11.8984 22.8787 10.8925 26.1365C10.6049 27.0369 10.4736 27.9799 10.5044 28.9246C10.4987 28.9653 10.4987 29.0065 10.5044 29.0472C10.7256 33.0535 11.8257 36.9621 13.7265 40.4957C16.581 45.7348 22.6014 51.9799 35.0712 51.9799C42.1078 51.9799 47.7146 49.871 51.7486 45.7195C58.7137 38.5348 58.5044 27.9033 58.5044 27.3212ZM27.3555 21.4846V21.4489C27.3861 20.4276 28.5657 19.9476 28.7086 19.917C30.7972 19.3604 34.7546 18.6761 37.9308 20.2999C41.3367 22.0412 42.4397 27.357 42.7563 29.5629C42.7706 29.6598 42.7647 29.7585 42.7391 29.853C42.7134 29.9474 42.6684 30.0355 42.607 30.1118C42.5457 30.188 42.4692 30.2508 42.3824 30.296C42.2956 30.3413 42.2003 30.3681 42.1027 30.3748C40.3869 30.4923 36.1486 30.6863 33.9325 29.9459C27.5699 27.8267 27.0695 23.7365 27.3555 21.4846ZM27.5597 16.6795C27.5839 16.6516 27.6045 16.6207 27.621 16.5876C27.6925 16.4446 27.7691 16.317 27.8406 16.1944C27.4853 17.1942 27.5329 18.293 27.9733 19.2582C27.4775 19.5238 27.0614 19.9169 26.7682 20.397L26.3342 19.7791C26.551 18.6808 26.957 17.6285 27.5342 16.6693L27.5597 16.6795ZM51.1154 45.1016C47.2703 49.0795 41.8576 51.0965 35.0712 51.0965C25.4201 51.0965 18.5061 47.3995 14.5129 40.1025C13.042 37.3424 12.0607 34.3483 11.6125 31.2531C15.4933 36.8701 25.0423 39.3314 25.1495 39.357C31.2772 40.8889 44.0431 40.8123 52.1214 35.7825C54.3612 34.4779 56.2026 32.5871 57.4474 30.3136C57.0389 34.031 55.6703 40.4089 51.1154 45.1016ZM51.6567 35.0523C43.8082 39.9238 31.3282 39.985 25.364 38.494C25.2516 38.4633 14.0278 35.5936 11.4082 29.0318C11.3557 28.1393 11.4665 27.2447 11.735 26.3918C12.6491 23.4301 14.8959 19.5901 23.8678 20.4327C24.4643 20.4709 25.063 20.4487 25.655 20.3663L26.4363 21.551C26.1861 24.1042 26.8397 28.5212 33.5852 30.7425C35.2989 31.193 37.0688 31.3926 38.8397 31.3348C40.0755 31.3348 41.2448 31.2787 42.1231 31.2174C42.3401 31.2043 42.5521 31.147 42.746 31.049C42.94 30.951 43.1119 30.8143 43.2511 30.6473C43.3903 30.4804 43.4939 30.2868 43.5554 30.0783C43.617 29.8699 43.6352 29.651 43.6091 29.4353C43.272 27.0965 42.0772 21.4387 38.3086 19.5084C35.0252 17.8284 31.0576 18.4106 28.775 18.9978C27.575 16.4906 30.0823 14.3255 30.4397 14.0344C31.7886 13.4287 33.2337 13.0657 34.7086 12.9621C39.1001 12.5127 50.3342 15.1067 55.2618 21.3314C56.6689 23.0398 57.4873 25.1566 57.5955 27.3672C56.8806 30.4565 54.8789 33.0506 51.6567 35.0523Z" fill="#F9FAF4"/>
</g>
<defs>
<clipPath id="clip0_1426_1453">
<rect width="48" height="48" fill="white" transform="translate(10.5 8)"/>
</clipPath>
</defs>
</svg>
