<svg preserveAspectRatio="none" width="100%" height="100%" overflow="visible" style="display: block;" viewBox="0 0 69 65" fill="none" xmlns="http://www.w3.org/2000/svg">
<g id="Frame">
<path id="Supply" d="M53.4655 26.918C53.7635 26.8486 54.0796 26.8831 54.358 27.0391L61.487 31.0323C62.1085 31.3806 62.3073 32.203 61.9303 32.8692C61.5533 33.5353 60.7434 33.7926 60.1217 33.4444L56.1461 31.2168C56.7209 33.2365 56.9638 35.3635 56.8493 37.4971C56.6631 40.9631 55.5462 44.2894 53.6403 47.0557C51.7343 49.8221 49.1247 51.9048 46.1413 53.0391C43.1579 54.1733 39.9348 54.3087 36.8795 53.4288L36.7663 53.3829C36.5058 53.2713 36.2865 53.0648 36.1461 52.7959C35.9858 52.4887 35.9408 52.1247 36.0221 51.7823C36.1034 51.4397 36.3043 51.1463 36.5807 50.9649C36.8571 50.7835 37.1877 50.7287 37.5006 50.8125C40.0859 51.5571 42.8131 51.4422 45.3375 50.4825C47.8621 49.5226 50.0705 47.7608 51.6832 45.42C53.2959 43.0793 54.2406 40.2647 54.3981 37.3321C54.5069 35.3058 54.236 33.286 53.6129 31.3946L50.8668 37.6016C50.7245 37.9235 50.4714 38.1703 50.1637 38.2871C49.856 38.4039 49.5181 38.3814 49.2252 38.2246C48.9322 38.0677 48.7077 37.7889 48.6012 37.4502C48.4948 37.1117 48.5146 36.7409 48.6569 36.419L52.4264 27.9004C52.457 27.8034 52.497 27.707 52.5495 27.6143C52.5589 27.5976 52.5697 27.5817 52.5797 27.5655C52.6443 27.446 52.7251 27.3377 52.82 27.2452C52.9406 27.1276 53.0816 27.0373 53.234 26.9795C53.3094 26.951 53.3869 26.93 53.4655 26.918ZM34.6676 16.9219C34.9846 16.9219 35.2908 17.0112 35.5563 17.1729H35.5573L46.192 23.667L46.2936 23.7334C46.491 23.8734 46.6543 24.0515 46.7789 24.252L46.8385 24.3536L46.9362 24.5664C47.0199 24.7843 47.0618 25.0161 47.0621 25.2481V38.1817L47.0485 38.4131C47.0204 38.6435 46.9506 38.8695 46.8395 39.0772C46.7094 39.3199 46.5242 39.5357 46.2936 39.6993L46.192 39.7657L35.5573 46.2579L35.5563 46.2588C35.2909 46.4204 34.9845 46.5098 34.6676 46.5098C34.3507 46.5097 34.0443 46.4205 33.7789 46.2588L33.778 46.2579L23.1432 39.7657L23.1442 39.7647C22.866 39.595 22.6453 39.3545 22.4967 39.0772C22.3485 38.8003 22.2731 38.4913 22.2731 38.1817V25.2481C22.2735 24.9389 22.3494 24.63 22.4977 24.3536C22.6463 24.0767 22.8664 23.8364 23.1442 23.667H23.1432L33.778 17.1729H33.7789C34.0444 17.0111 34.3506 16.922 34.6676 16.9219ZM24.2731 38.1114L33.6676 43.8457V32.2754L24.2731 26.5411V38.1114ZM35.6676 32.2754V43.8457L45.0621 38.1114V26.5391L35.6676 32.2754ZM23.8776 11.5752C26.8981 10.7119 30.0633 10.823 32.9733 11.8936C33.2735 12.0043 33.5178 12.2394 33.651 12.5479C33.7842 12.8563 33.796 13.2126 33.6842 13.5381C33.6289 13.6993 33.5451 13.8486 33.4371 13.9766C33.3291 14.1046 33.1986 14.2089 33.0543 14.2842C32.763 14.4362 32.4307 14.4593 32.1305 14.3487C29.6682 13.4434 26.9898 13.3502 24.4342 14.0811C21.8785 14.8121 19.5606 16.3351 17.7731 18.4561C15.9856 20.577 14.8089 23.2012 14.3922 25.9971C14.0138 28.5365 14.2794 31.1131 15.151 33.459L18.6842 27.21C18.7675 27.0626 18.876 26.9327 19.0045 26.8291C19.1331 26.7256 19.2789 26.6495 19.4332 26.6055C19.5875 26.5615 19.7475 26.551 19.9039 26.5733C20.0603 26.5955 20.2105 26.6504 20.3454 26.7354C20.4803 26.8206 20.5982 26.9343 20.6911 27.0694C20.7838 27.2044 20.8498 27.3591 20.8864 27.5235C20.9228 27.6877 20.9291 27.8589 20.9039 28.0274C20.8787 28.1961 20.8222 28.3595 20.7389 28.5069L16.1647 36.5977C16.0815 36.7449 15.9728 36.8741 15.8444 36.9776C15.7158 37.0811 15.5699 37.1572 15.4157 37.2012C15.2615 37.2452 15.1014 37.2566 14.945 37.2344C14.7885 37.2121 14.6384 37.1564 14.5036 37.0713C14.4664 37.0479 14.4305 37.0218 14.3961 36.9942L7.10316 32.3877C6.96351 32.3054 6.84102 32.1938 6.74379 32.0586C6.64659 31.9234 6.57617 31.7673 6.53676 31.6006C6.49739 31.4338 6.48961 31.2589 6.5143 31.087C6.53902 30.9149 6.59538 30.7487 6.68031 30.5987C6.76525 30.4486 6.87671 30.3173 7.00844 30.2129C7.14007 30.1086 7.28931 30.0335 7.44691 29.9913C7.60466 29.949 7.76855 29.9402 7.92738 29.9668C8.08597 29.9935 8.23705 30.0545 8.37172 30.1455L12.3385 32.6504C11.7745 30.3939 11.6563 28.0114 12.0075 25.6563C12.5003 22.352 13.8908 19.2505 16.0036 16.7442C18.1164 14.2377 20.8569 12.4387 23.8776 11.5752ZM25.192 24.7588L34.6666 30.542L44.1413 24.7579L34.6676 18.9727L25.192 24.7588Z" fill="var(--fill-0, #F7F6F0)"/>
</g>
</svg>
