<svg width="69" height="65" viewBox="0 0 69 65" fill="none" xmlns="http://www.w3.org/2000/svg">
<path d="M54.0294 12.3856C50.7797 9.50948 45.9187 12.0315 40.2925 15.0472C37.3831 13.922 34.2461 13.5118 31.1452 13.8512C28.0444 14.1906 25.0703 15.2697 22.4732 16.9976L22.5543 16.7485C22.6942 16.3417 22.856 15.9428 23.0389 15.5535L23.1671 15.2654C23.5079 14.4913 23.5795 13.6253 23.3704 12.8057C23.2034 12.1479 22.8594 11.5485 22.3758 11.0724C21.8922 10.5963 21.2874 10.2618 20.6271 10.1051C20.0722 9.97125 19.4941 9.96517 18.9365 10.0873C18.3789 10.2095 17.8563 10.4567 17.4082 10.8103C16.7124 11.3616 16.2347 12.1419 16.0601 13.0124C15.8855 13.8828 16.0254 14.787 16.4547 15.564C16.6469 15.9432 16.8031 16.3395 16.9213 16.7478L18.2379 20.8061C16.0239 23.4669 14.5595 26.6698 13.9954 30.085C13.4313 33.5001 13.788 37.0038 15.0287 40.2352C9.59378 47.9483 11.4864 51.5558 13.7692 53.8371C14.6592 54.7073 15.7135 55.3916 16.8707 55.8501C18.0279 56.3086 19.2648 56.5321 20.5093 56.5076C20.7299 56.5076 20.9519 56.5009 21.1755 56.4874C23.5272 56.3493 26.7446 55.4312 30.6822 52.5686C31.5304 52.6825 32.3852 52.7411 33.241 52.7441C36.2124 52.7461 39.145 52.0688 41.8145 50.7638C44.484 49.4588 46.8197 47.5607 48.6433 45.2147C50.4668 42.8686 51.7297 40.1367 52.3356 37.2277C52.9415 34.3187 52.8742 31.3097 52.139 28.4307C55.9446 22.5697 58.7291 16.5452 54.0294 12.3856ZM53.0347 13.5108C57.4426 17.4116 53.6603 23.6845 48.2577 31.4809C48.1508 31.6357 48.0136 31.7672 47.8543 31.8674C47.6951 31.9676 47.5171 32.0344 47.3312 32.0637C47.0548 32.1092 46.771 32.0715 46.516 31.9556C46.2609 31.8396 46.046 31.6506 45.8984 31.4124C45.7509 31.1743 45.6773 30.8977 45.6871 30.6177C45.6968 30.3377 45.7894 30.0668 45.9532 29.8395C51.2973 22.2479 52.8637 18.0448 51.031 16.2114C49.974 15.1544 47.6125 15.3735 43.8498 16.8565C43.2638 16.4791 42.6578 16.1338 42.0344 15.8221C47.3725 13.009 50.857 11.5837 53.0347 13.5108ZM43.7327 23.776C43.7626 23.367 43.7277 22.9558 43.6292 22.5577C43.4622 21.9 43.1182 21.3005 42.6346 20.8245C42.1509 20.3484 41.5462 20.0139 40.8859 19.8572C40.189 19.6852 39.4574 19.7171 38.7781 19.9491C38.0988 20.1811 37.5006 20.6035 37.0545 21.1658C36.6085 21.7282 36.3335 22.407 36.2623 23.1212C36.191 23.8355 36.3266 24.5551 36.6527 25.1945L35.5748 25.4106C34.918 25.5428 34.3271 25.8977 33.9019 26.4153C33.4767 26.933 33.2432 27.5815 33.241 28.2514V32.3488C33.2399 32.73 33.3144 33.1076 33.4603 33.4598C33.6062 33.812 33.8206 34.1317 34.0909 34.4005L35.4412 35.7508L33.082 36.2556C32.9477 36.2844 32.8238 36.3496 32.724 36.444C32.6242 36.5384 32.5522 36.6584 32.5159 36.7909C32.4796 36.9234 32.4804 37.0633 32.5182 37.1954C32.556 37.3275 32.6293 37.4466 32.7302 37.5399L35.1187 39.7454C31.5732 43.1163 27.5576 45.9552 23.1972 48.1734C20.8092 46.5737 18.8408 44.4234 17.458 41.9037C16.0752 39.384 15.3184 36.5688 15.2515 33.6953L15.8021 33.42C16.1125 33.2639 16.4548 33.1817 16.8023 33.1797C17.1498 33.1776 17.493 33.2559 17.8053 33.4084C18.1175 33.5609 18.3903 33.7835 18.6023 34.0587C18.8144 34.334 18.96 34.6545 19.0278 34.9954L19.4876 37.2931C19.5924 37.8198 19.8092 38.3179 20.1231 38.7537C20.4371 39.1895 20.841 39.5527 21.3075 39.8189L23.3764 41.0011C24.1667 41.4521 25.0937 41.6011 25.9855 41.4203C26.8772 41.2396 27.6731 40.7414 28.2253 40.0182C28.7776 39.2951 29.0486 38.3961 28.9882 37.4882C28.9278 36.5804 28.5401 35.7252 27.8969 35.0816L27.1535 34.3382C26.7311 33.9152 26.4926 33.3427 26.4896 32.7449V29.0436C26.4902 28.531 26.6647 28.0338 26.9847 27.6333L28.6658 25.5329C29.1988 24.8662 29.4897 24.0384 29.491 23.1849V20.9824C29.4926 20.3843 29.7301 19.8109 30.1519 19.3868L34.2702 15.2684C38.7033 15.5085 42.8881 17.3909 46.0087 20.5488L44.9217 23.0851C44.8562 23.2377 44.7546 23.372 44.6256 23.4765C44.4966 23.5811 44.3441 23.6527 44.1813 23.6852L43.7327 23.776ZM37.742 23.5014C37.7398 22.9541 37.9371 22.4248 38.2971 22.0124C38.657 21.6001 39.1549 21.3331 39.6975 21.2614C40.2401 21.1897 40.7902 21.3181 41.2449 21.6227C41.6997 21.9273 42.0278 22.3872 42.1679 22.9163C42.2967 23.4136 42.2552 23.9397 42.0501 24.4106L41.9248 24.6912C41.7182 25.1308 41.5361 25.5816 41.3795 26.0415L39.9677 30.2393L38.6031 26.0385C38.4572 25.538 38.2624 25.0531 38.0218 24.5907C37.8378 24.2571 37.7416 23.8823 37.742 23.5014ZM17.703 45.031C18.8065 46.4837 20.1081 47.7745 21.5701 48.8658C19.4734 49.6339 17.9415 49.709 17.2679 49.0361C16.7795 48.5432 16.9318 47.1929 17.703 45.0287V45.031ZM45.3006 17.9068C48.1512 16.885 49.5975 16.9 49.9703 17.2729C50.3919 17.6945 50.6117 18.8429 49.1091 21.8953C48.0341 20.3928 46.7519 19.0499 45.3006 17.9068ZM32.1308 15.2857L29.0904 18.3261C28.388 19.032 27.9925 19.9866 27.9899 20.9824V23.1834C27.9893 23.696 27.8148 24.1932 27.4948 24.5937L25.8137 26.6941C25.2807 27.3607 24.9898 28.1886 24.9885 29.0421V30.1283C24.951 30.1208 24.9135 30.1178 24.8753 30.1096L24.5542 31.5746C24.6975 31.6061 24.8437 31.6234 24.9885 31.6459V32.7449C24.9911 33.7407 25.3866 34.6953 26.089 35.4012L26.8324 36.1446C27.2186 36.5313 27.4514 37.0449 27.4876 37.5902C27.5238 38.1355 27.361 38.6754 27.0293 39.1098C26.6976 39.5441 26.2195 39.8433 25.6839 39.9519C25.1483 40.0605 24.5915 39.9711 24.1168 39.7003L22.0487 38.5188C21.7686 38.3588 21.5262 38.1407 21.3376 37.879C21.1491 37.6173 21.0188 37.3183 20.9557 37.002L20.4958 34.7028C20.3858 34.151 20.153 33.6311 19.8147 33.1815C19.4764 32.7319 19.0413 32.3642 18.5416 32.1055C18.042 31.8469 17.4905 31.704 16.9281 31.6874C16.3657 31.6708 15.8068 31.781 15.2927 32.0097C15.5389 28.4714 16.8244 25.0846 18.988 22.2742V22.7378H20.4883V21.7761C20.814 21.5944 21.0633 21.3015 21.1905 20.9509L21.6773 19.4506C24.6268 16.9802 28.2906 15.5205 32.1308 15.2857ZM17.4877 13.7494C17.4855 13.2021 17.6829 12.6727 18.0428 12.2604C18.4027 11.8481 18.9006 11.5811 19.4432 11.5093C19.9858 11.4376 20.5359 11.5661 20.9907 11.8707C21.4454 12.1753 21.7735 12.6352 21.9136 13.1643C22.0424 13.6615 22.0009 14.1876 21.7959 14.6586L21.6706 14.9391C21.4648 15.3779 21.2835 15.8276 21.1275 16.2864L19.7134 20.4873L18.3489 16.2864C18.2029 15.786 18.0082 15.301 17.7675 14.8386C17.5836 14.5051 17.4873 14.1303 17.4877 13.7494ZM21.0885 54.9893C19.9479 55.089 18.7993 54.943 17.72 54.5613C16.6406 54.1795 15.6556 53.5709 14.8314 52.7763C12.8307 50.7757 11.6057 48.0504 15.7406 41.8525C16.0219 42.4249 16.3272 42.9853 16.664 43.5269C15.6078 46.1825 14.8824 48.7682 16.2087 50.0945C19.3698 53.2557 29.1444 47.4022 36.7398 40.2937C36.8151 40.2232 36.875 40.138 36.9159 40.0433C36.9568 39.9486 36.9777 39.8465 36.9774 39.7434C36.977 39.6403 36.9554 39.5383 36.9139 39.4439C36.8723 39.3495 36.8118 39.2647 36.736 39.1947L34.8163 37.4206L42.9316 35.6825L42.3524 44.3776L39.9684 42.1766C39.8925 42.1064 39.8028 42.0526 39.705 42.0187C39.6073 41.9848 39.5036 41.9715 39.4005 41.9796C39.2973 41.9877 39.197 42.017 39.1057 42.0658C39.0145 42.1145 38.9343 42.1816 38.8702 42.2629C30.8833 52.3863 24.7912 54.7695 21.0885 54.9893ZM33.241 51.2438C32.968 51.2438 32.6949 51.2265 32.4211 51.2138C35.0325 48.9917 37.4179 46.5169 39.5423 43.8255L42.4867 46.5433C42.5907 46.6391 42.7197 46.7035 42.8588 46.7291C42.9979 46.7547 43.1413 46.7406 43.2727 46.6882C43.404 46.6358 43.5179 46.5474 43.6011 46.4331C43.6844 46.3188 43.7337 46.1833 43.7432 46.0422L44.1138 40.482L44.3036 40.53C44.65 40.6156 44.9617 40.8058 45.1963 41.0746L47.7078 43.9447C46.0355 46.2082 43.8554 48.0477 41.3428 49.3154C38.8302 50.5831 36.0553 51.2436 33.241 51.2438ZM51.2448 33.24C51.2482 36.5672 50.324 39.8295 48.5757 42.6605L46.3253 40.0874C45.8898 39.5871 45.3106 39.2332 44.6667 39.074L44.2166 38.9614L44.4934 34.7898C44.501 34.6741 44.4816 34.5582 44.4368 34.4512C44.3921 34.3442 44.3231 34.249 44.2353 34.1732C44.1481 34.0962 44.0439 34.041 43.9313 34.0121C43.8186 33.9831 43.7007 33.9813 43.5872 34.0066L37.1898 35.3779L35.1517 33.3398C35.0211 33.21 34.9176 33.0555 34.8471 32.8854C34.7767 32.7153 34.7407 32.5329 34.7413 32.3488V31.7397H35.2064V30.2393H34.7413V28.2514C34.7419 27.928 34.8542 27.6146 35.0592 27.3644C35.2643 27.1143 35.5495 26.9426 35.8666 26.8786L37.2109 26.6093L38.5484 30.7285C38.6567 31.027 38.855 31.2846 39.1159 31.4658C39.3767 31.6469 39.6874 31.7428 40.0049 31.7401C40.3225 31.7373 40.6315 31.6362 40.8892 31.4506C41.1469 31.265 41.3408 31.004 41.444 30.7037L42.8078 26.5028C42.9364 26.1283 43.0849 25.761 43.2526 25.4023L44.4761 25.1585C44.8775 25.0781 45.2533 24.9012 45.571 24.6431C45.8887 24.385 46.1389 24.0534 46.2998 23.677L47.1174 21.7701C47.5448 22.2922 47.9433 22.8374 48.3109 23.4032C47.473 24.8907 46.3185 26.7159 44.7267 28.9776C44.4161 29.413 44.2314 29.9254 44.1926 30.4589C44.1539 30.9923 44.2627 31.526 44.5071 32.0017C44.7515 32.4774 45.122 32.8767 45.5782 33.1559C46.0344 33.435 46.5586 33.5832 47.0934 33.5843C47.2538 33.5843 47.4138 33.5713 47.572 33.5453C47.957 33.4843 48.3255 33.3458 48.6552 33.138C48.985 32.9303 49.269 32.6577 49.4902 32.3368C49.9823 31.6264 50.4811 30.9055 50.9748 30.1793C51.1511 31.1901 51.2414 32.214 51.2448 33.24Z" fill="#F7F6F0"/>
<path d="M18.988 12.999H20.4884V14.4993H18.988V12.999ZM39.2423 22.7511H40.7426V24.2514H39.2423V22.7511ZM20.4884 24.6542V24.2379H18.988V24.6542C18.9881 25.0583 19.0224 25.4615 19.0908 25.8597L20.5686 25.6062C20.5153 25.2917 20.4884 24.9732 20.4884 24.6542ZM30.7055 30.2392H32.2058V31.7395H30.7055V30.2392ZM36.7068 30.2392H38.2071V31.7395H36.7068V30.2392ZM22.9729 31.0268L23.6293 29.6765C23.233 29.4838 22.861 29.2445 22.5213 28.9639L21.5663 30.1199C21.9977 30.4767 22.4698 30.7811 22.9729 31.0268ZM27.7049 30.2392H29.2052V31.7395H27.7049V30.2392ZM19.5679 27.4636C19.7914 27.978 20.0752 28.464 20.4133 28.9114L21.6136 28.0112C21.3484 27.6588 21.1259 27.2763 20.9505 26.8717L19.5679 27.4636Z" fill="#F7F6F0"/>
</svg>
