<svg width="90" height="52" viewBox="0 0 90 52" fill="none" xmlns="http://www.w3.org/2000/svg">
<path fill-rule="evenodd" clip-rule="evenodd" d="M31.5526 45.2493C30.0153 45.2493 28.5551 44.6388 27.4551 43.5525C26.3551 42.4663 25.7583 40.9923 25.7583 39.455V12.5325C25.7583 10.9953 26.3688 9.53503 27.4551 8.43503C28.5413 7.33503 30.0153 6.73828 31.5526 6.73828H58.4751C60.0123 6.73828 61.4726 7.34878 62.5726 8.43503C63.6726 9.52128 64.2693 10.9953 64.2693 12.5325V39.455C64.2693 40.9923 63.6588 42.4525 62.5726 43.5525C61.4863 44.6525 60.0123 45.2493 58.4751 45.2493H31.5526ZM55.0651 28.9968H50.9951V42.4443H58.4751C58.8679 42.4454 59.2571 42.3688 59.6203 42.219C59.9834 42.0691 60.3134 41.849 60.5912 41.5712C60.869 41.2934 61.0891 40.9634 61.239 40.6003C61.3888 40.2371 61.4654 39.8479 61.4643 39.455V12.5325C61.4647 12.1399 61.3876 11.751 61.2375 11.3882C61.0874 11.0253 60.8672 10.6957 60.5896 10.418C60.3119 10.1404 59.9823 9.92018 59.6194 9.77009C59.2566 9.61999 58.8677 9.54292 58.4751 9.54328H31.5526C30.7604 9.54546 30.0014 9.8611 29.4412 10.4212C28.8811 10.9813 28.5655 11.7404 28.5633 12.5325V39.455C28.5655 40.2472 28.8811 41.0062 29.4412 41.5663C30.0014 42.1265 30.7604 42.4421 31.5526 42.4443H46.5126V28.9968H42.0301V24.5143H46.5126V22.1053C46.5126 17.5403 48.7346 15.5328 52.5351 15.5328C54.3143 15.5328 55.2713 15.662 55.7251 15.7253L55.7526 15.728V20.018H53.1676C51.8641 20.018 51.2481 20.5763 51.0611 21.701C51.0161 21.994 50.995 22.2901 50.9978 22.5865V24.5033H55.7003L55.0596 28.9858L55.0651 28.9968Z" fill="#F9FAF4"/>
</svg>
