<svg width="68" height="52" viewBox="0 0 68 52" fill="none" xmlns="http://www.w3.org/2000/svg">
<path d="M44.4752 15.4542C44.2668 15.4542 44.0669 15.3715 43.9196 15.2241C43.7722 15.0768 43.6895 14.8769 43.6895 14.6685C43.6895 14.4601 43.7722 14.2603 43.9196 14.1129C44.0669 13.9656 44.2668 13.8828 44.4752 13.8828M44.4752 15.4542C44.6836 15.4542 44.8834 15.3715 45.0308 15.2241C45.1781 15.0768 45.2609 14.8769 45.2609 14.6685C45.2609 14.4601 45.1781 14.2603 45.0308 14.1129C44.8834 13.9656 44.6836 13.8828 44.4752 13.8828" stroke="#F9FAF4" stroke-width="3.14286" stroke-linecap="round" stroke-linejoin="round"/>
<path d="M14.6965 14.7838C14.6965 12.6391 15.5485 10.5823 17.065 9.06577C18.5815 7.54924 20.6384 6.69727 22.7831 6.69727H44.3494C45.4113 6.69727 46.4628 6.90643 47.444 7.31282C48.4251 7.71921 49.3165 8.31486 50.0674 9.06577C50.8183 9.81668 51.414 10.7081 51.8204 11.6892C52.2268 12.6703 52.4359 13.7219 52.4359 14.7838V36.3501C52.4359 38.4948 51.584 40.5517 50.0674 42.0682C48.5509 43.5847 46.4941 44.4367 44.3494 44.4367H22.7799C20.6352 44.4367 18.5784 43.5847 17.0619 42.0682C15.5453 40.5517 14.6934 38.4948 14.6934 36.3501L14.6965 14.7838Z" stroke="#F9FAF4" stroke-width="3.14286" stroke-linecap="round" stroke-linejoin="round"/>
<path d="M25.552 25.567C25.552 26.6195 25.7593 27.6616 26.1621 28.634C26.5648 29.6063 27.1551 30.4898 27.8993 31.234C28.6435 31.9782 29.527 32.5685 30.4994 32.9713C31.4717 33.374 32.5138 33.5813 33.5663 33.5813C34.6187 33.5813 35.6609 33.374 36.6332 32.9713C37.6056 32.5685 38.489 31.9782 39.2332 31.234C39.9774 30.4898 40.5678 29.6063 40.9705 28.634C41.3733 27.6616 41.5806 26.6195 41.5806 25.567C41.5806 23.4415 40.7362 21.403 39.2332 19.9001C37.7303 18.3971 35.6918 17.5527 33.5663 17.5527C31.4408 17.5527 29.4023 18.3971 27.8993 19.9001C26.3964 21.403 25.552 23.4415 25.552 25.567Z" stroke="#F9FAF4" stroke-width="3.14286" stroke-linecap="round" stroke-linejoin="round"/>
</svg>
