<svg width="34" height="34" viewBox="0 0 34 34" fill="none" xmlns="http://www.w3.org/2000/svg">
<path d="M17 18.0627C12.5091 18.0627 8.85415 14.4077 8.85415 9.91683C8.85415 5.426 12.5091 1.771 17 1.771C21.4908 1.771 25.1458 5.426 25.1458 9.91683C25.1458 14.4077 21.4908 18.0627 17 18.0627ZM17 3.896C13.685 3.896 10.9791 6.60183 10.9791 9.91683C10.9791 13.2318 13.685 15.9377 17 15.9377C20.315 15.9377 23.0208 13.2318 23.0208 9.91683C23.0208 6.60183 20.315 3.896 17 3.896ZM29.1691 32.2293C28.5883 32.2293 28.1066 31.7477 28.1066 31.1668C28.1066 26.2793 23.12 22.3127 17 22.3127C10.88 22.3127 5.89331 26.2793 5.89331 31.1668C5.89331 31.7477 5.41164 32.2293 4.83081 32.2293C4.24998 32.2293 3.76831 31.7477 3.76831 31.1668C3.76831 25.1177 9.70415 20.1877 17 20.1877C24.2958 20.1877 30.2316 25.1177 30.2316 31.1668C30.2316 31.7477 29.75 32.2293 29.1691 32.2293Z" fill="#F9FAF4"/>
</svg>
