<svg width="69" height="65" viewBox="0 0 69 65" fill="none" xmlns="http://www.w3.org/2000/svg">
<path d="M20.577 22.4322C25.547 16.8702 34.187 19.3142 37.5 21.0002C39.157 20.3682 43.697 19.6432 46.68 21.6652C50.407 24.1932 55.103 30.9052 50.754 40.3842C47.275 47.9682 38.19 51.1572 34.876 52.0002C32.391 50.9472 26.93 48.8322 21.106 43.5522C15.826 38.7642 14.365 29.3832 20.577 22.4322Z" stroke="#F9FAF4" stroke-width="2" stroke-linejoin="round"/>
<path d="M37.5 21C35.576 21.75 31.728 23.25 29.63 27.75C27.374 32.586 29.105 36.75 29.63 39" stroke="#F9FAF4" stroke-width="2" stroke-linecap="round" stroke-linejoin="round"/>
<path d="M31.5 13C31.833 13.167 34 13.5 34.5 15.5C34.937 17.249 34.167 18.333 34 19.5" stroke="#F9FAF4" stroke-width="2" stroke-linecap="round"/>
<path d="M38.979 20.3294C38.7589 20.3259 38.5423 20.2733 38.3452 20.1753C38.1481 20.0774 37.9753 19.9366 37.8396 19.7633C37.7038 19.59 37.6086 19.3885 37.5607 19.1737C37.5129 18.9588 37.5136 18.736 37.563 18.5214C37.833 17.2344 38.445 15.4774 39.83 14.3924C41.215 13.3074 43.066 13.1334 44.38 13.1794C44.6001 13.1828 44.8166 13.2353 45.0138 13.3331C45.211 13.431 45.3838 13.5716 45.5196 13.7448C45.6555 13.918 45.7509 14.1194 45.7988 14.3342C45.8468 14.5491 45.8462 14.7719 45.797 14.9864C45.527 16.2744 44.914 18.0314 43.53 19.1164C42.146 20.2014 40.294 20.3744 38.979 20.3294Z" stroke="#F9FAF4" stroke-width="2"/>
</svg>
