<svg width="69" height="65" viewBox="0 0 69 65" fill="none" xmlns="http://www.w3.org/2000/svg">
<path d="M53.4653 26.9182C53.7634 26.8488 54.0794 26.8833 54.3578 27.0393L61.4867 31.0315C62.1085 31.3798 62.3071 32.2031 61.9301 32.8694C61.553 33.5355 60.7432 33.7928 60.1215 33.4446L56.1469 31.218C56.7214 33.2373 56.9636 35.3641 56.849 37.4973C56.6629 40.9633 55.546 44.2896 53.6401 47.0559C51.7341 49.8223 49.1245 51.904 46.141 53.0383C43.1577 54.1726 39.9347 54.3089 36.8793 53.429L36.766 53.3831C36.5056 53.2715 36.2863 53.065 36.1459 52.7961C35.9856 52.489 35.9406 52.125 36.0219 51.7825C36.1032 51.44 36.3041 51.1465 36.5805 50.9651C36.8569 50.7837 37.1874 50.729 37.5004 50.8127C40.0857 51.5574 42.8129 51.4424 45.3373 50.4827C47.8618 49.5229 50.0703 47.761 51.683 45.4202C53.2957 43.0795 54.2404 40.2649 54.3979 37.3323C54.5067 35.3057 54.236 33.2855 53.6127 31.3938L50.8666 37.6018C50.7243 37.9237 50.4712 38.1706 50.1635 38.2874C49.8557 38.4041 49.5179 38.3816 49.225 38.2249C48.932 38.0679 48.7075 37.7891 48.601 37.4504C48.4946 37.112 48.5145 36.7411 48.6567 36.4192L52.4262 27.9006C52.4568 27.8036 52.4968 27.7072 52.5492 27.6145C52.5587 27.5978 52.5695 27.5819 52.5795 27.5657C52.6441 27.4462 52.7249 27.3379 52.8198 27.2454C52.9404 27.1278 53.0814 27.0376 53.2338 26.9797C53.3092 26.9512 53.3867 26.9302 53.4653 26.9182ZM34.6674 16.9211C34.9843 16.9211 35.2907 17.0105 35.5561 17.1721H35.5571L46.1918 23.6663L46.2934 23.7327C46.4907 23.8726 46.6541 24.0509 46.7787 24.2512L46.8383 24.3528L46.936 24.5657C47.0197 24.7835 47.0616 25.0154 47.0619 25.2473V38.1809L47.0483 38.4124C47.0203 38.6428 46.9504 38.8687 46.8393 39.0764C46.7092 39.3193 46.5241 39.5349 46.2934 39.6985L46.1918 39.7649L35.5571 46.2571L35.5561 46.2581C35.2907 46.4197 34.9844 46.509 34.6674 46.509C34.3505 46.509 34.0441 46.4198 33.7787 46.2581L33.7778 46.2571L23.143 39.7649L23.144 39.7639C22.8659 39.5942 22.645 39.3538 22.4965 39.0764C22.3484 38.7995 22.2728 38.4905 22.2729 38.1809V25.2473C22.2734 24.9381 22.3492 24.6292 22.4975 24.3528C22.6461 24.076 22.8662 23.8356 23.144 23.6663H23.143L33.7778 17.1721H33.7787C34.0441 17.0104 34.3505 16.9212 34.6674 16.9211ZM24.2729 38.1106L33.6674 43.845V32.2756L24.2729 26.5413V38.1106ZM35.6674 32.2756V43.845L45.0619 38.1106V26.5393L35.6674 32.2756ZM23.8774 11.5754C26.898 10.712 30.064 10.8222 32.974 11.8928C33.2742 12.0035 33.5176 12.2397 33.6508 12.5481C33.784 12.8566 33.7958 13.2128 33.684 13.5383C33.6286 13.6996 33.545 13.8488 33.4369 13.9768C33.3289 14.1048 33.1984 14.2092 33.0541 14.2844C32.7628 14.4363 32.4305 14.4595 32.1303 14.3489C29.668 13.4436 26.9896 13.3503 24.434 14.0813C21.8785 14.8123 19.5603 16.3346 17.7729 18.4553C15.9854 20.5763 14.8087 23.2014 14.392 25.9973C14.0136 28.5363 14.2785 31.1127 15.1498 33.4583L18.684 27.2092C18.7672 27.0621 18.8759 26.9328 19.0043 26.8294C19.1329 26.7258 19.2787 26.6497 19.433 26.6057C19.5873 26.5617 19.7473 26.5513 19.9037 26.5735C20.0601 26.5958 20.2103 26.6506 20.3451 26.7356C20.4801 26.8208 20.598 26.9345 20.6908 27.0696C20.7836 27.2046 20.8496 27.3593 20.8862 27.5237C20.9226 27.6879 20.9289 27.8591 20.9037 28.0276C20.8784 28.1964 20.822 28.3597 20.7387 28.5071L16.1645 36.5979C16.0813 36.7451 15.9726 36.8743 15.8442 36.9778C15.7156 37.0814 15.5698 37.1574 15.4155 37.2014C15.2612 37.2454 15.1012 37.2569 14.9448 37.2346C14.7883 37.2124 14.6382 37.1566 14.5033 37.0715C14.4671 37.0487 14.4324 37.0231 14.3989 36.9963L7.10296 32.3879C6.96313 32.3055 6.84087 32.1932 6.74358 32.0579C6.64634 31.9225 6.57593 31.7667 6.53655 31.5999C6.49726 31.4332 6.48944 31.259 6.51409 31.0872C6.53881 30.9152 6.59521 30.7489 6.6801 30.5989C6.76501 30.4489 6.87655 30.3175 7.00823 30.2131C7.13983 30.1089 7.28915 30.0337 7.44671 29.9915C7.60445 29.9492 7.76834 29.9404 7.92717 29.967C8.08578 29.9937 8.23683 30.0547 8.37151 30.1458L12.3383 32.6506C11.7743 30.3941 11.656 28.0116 12.0073 25.6565C12.5 22.3522 13.8906 19.2508 16.0033 16.7444C18.1162 14.2379 20.8567 12.4389 23.8774 11.5754ZM25.1908 24.7581L34.6664 30.5422L44.142 24.7581L34.6674 18.9719L25.1908 24.7581Z" fill="#F7F6F0"/>
</svg>
