<svg width="24" height="24" viewBox="0 0 24 24" fill="none" xmlns="http://www.w3.org/2000/svg">
<path d="M22.9691 4.66476C22.8815 4.59452 22.7793 4.54485 22.6699 4.51941C22.5605 4.49397 22.4469 4.4934 22.3372 4.51776L15.8123 5.96751L8.52863 3.05376C8.38787 3.00023 8.23477 2.98787 8.08725 3.01814L1.33725 4.51814C1.1707 4.55516 1.02176 4.64786 0.914992 4.78094C0.808228 4.91402 0.750029 5.07953 0.75 5.25014V17.2501C0.750019 17.3624 0.775259 17.4733 0.823855 17.5746C0.872452 17.6758 0.943165 17.7648 1.03078 17.8351C1.11839 17.9054 1.22066 17.955 1.33004 17.9805C1.43942 18.0059 1.55312 18.0065 1.66275 17.9821L4.45125 17.3626L2.09475 19.7199C2.02312 19.7891 1.96598 19.8718 1.92667 19.9633C1.88737 20.0548 1.86668 20.1533 1.86581 20.2528C1.86495 20.3524 1.88392 20.4512 1.92163 20.5434C1.95934 20.6355 2.01503 20.7193 2.08545 20.7897C2.15587 20.8601 2.23961 20.9158 2.33178 20.9535C2.42396 20.9912 2.52272 21.0102 2.6223 21.0093C2.72189 21.0085 2.8203 20.9878 2.9118 20.9485C3.00331 20.9092 3.08606 20.852 3.15525 20.7804L5.8125 18.1231C6.55649 18.6201 7.45458 18.8324 8.34234 18.7212C9.23009 18.6101 10.0481 18.1829 10.6466 17.5179L15.4714 19.4465C15.6117 19.5015 15.7651 19.5138 15.9124 19.4821L22.6624 17.9821C22.829 17.9452 22.978 17.8525 23.0849 17.7194C23.1917 17.5863 23.25 17.4208 23.25 17.2501V5.25014C23.25 5.13776 23.2248 5.0268 23.1762 4.92548C23.1276 4.82416 23.0568 4.73506 22.9691 4.66476ZM15 17.6428L11.4161 16.2099C11.5814 15.7373 11.6498 15.2363 11.6171 14.7367C11.5843 14.2372 11.4512 13.7493 11.2257 13.3024C11.0001 12.8554 10.6868 12.4585 10.3044 12.1354C9.92197 11.8123 9.47834 11.5696 9 11.4219V4.85939L15 7.25939V17.6428ZM2.25 5.85014L7.5 4.68351V11.2693C6.96695 11.3214 6.45133 11.4875 5.98804 11.7563C5.52475 12.025 5.12461 12.3902 4.81469 12.827C4.50477 13.2638 4.29231 13.7621 4.1917 14.2882C4.09108 14.8142 4.10466 15.3558 4.2315 15.8761L2.25 16.3156V5.85014ZM7.875 17.2501C7.27826 17.2501 6.70597 17.0131 6.28401 16.5911C5.86205 16.1692 5.625 15.5969 5.625 15.0001C5.625 14.4034 5.86205 13.8311 6.28401 13.4091C6.70597 12.9872 7.27826 12.7501 7.875 12.7501C7.96949 12.75 8.06391 12.7555 8.15775 12.7666C8.7014 12.8355 9.20124 13.1004 9.56344 13.5116C9.92565 13.9229 10.1253 14.4521 10.125 15.0001C10.1237 15.5965 9.88625 16.168 9.46457 16.5897C9.04289 17.0114 8.47134 17.2489 7.875 17.2501ZM21.75 16.6501L16.5 17.8153V7.35014L21.75 6.18351V16.6501Z" fill="#F9FAF4"/>
</svg>
