<svg width="24" height="24" viewBox="0 0 24 24" fill="none" xmlns="http://www.w3.org/2000/svg">
<path d="M21.7718 13.4405C20.9875 12.6562 19.7114 12.6562 18.9272 13.4405L17.1149 15.2528C16.7907 14.576 16.0988 14.1074 15.2996 14.1074H6.82763L2 18.9351L6.93977 23.8748L9.12531 21.6893L16.8415 21.2154L21.7718 16.2851C22.5561 15.5008 22.5561 14.2248 21.7718 13.4405ZM20.8241 15.3374L16.2527 19.9088L8.5365 20.3826L6.93977 21.9794L3.89543 18.9351L7.38281 15.4477H15.2996C15.6697 15.4477 15.9708 15.7488 15.9708 16.1189C15.9708 16.489 15.6697 16.7901 15.2996 16.7901H11.4741V18.1303H15.2996C15.8545 18.1303 16.3576 17.9045 16.7219 17.5399L16.7226 17.5405L19.8749 14.3882C20.1367 14.1266 20.5625 14.1265 20.8242 14.3882C21.0858 14.6499 21.0858 15.0757 20.8241 15.3374ZM10.5323 11.6146H14.1063C16.4465 11.6146 18.3504 9.71065 18.3504 7.37044V4.91331H15.8933C15.6678 4.91331 15.4465 4.93114 15.2305 4.96518C15.0776 4.12658 14.675 3.35572 14.0567 2.73746L12.3193 1L10.5818 2.73746C9.96355 3.35572 9.56094 4.12658 9.40802 4.96518C9.18879 4.93065 8.9672 4.91331 8.74526 4.91331H6.28814V7.37044C6.28814 9.7107 8.19205 11.6146 10.5323 11.6146ZM17.0102 6.25356V7.37044C17.0102 8.97164 15.7075 10.2743 14.1063 10.2743H12.9894V9.15744C12.9894 7.55624 14.2921 6.25356 15.8933 6.25356H17.0102ZM11.5295 3.68515L12.3193 2.89538L13.109 3.68515C13.5762 4.15236 13.8629 4.74721 13.9387 5.39098C13.2794 5.73495 12.7212 6.24495 12.3193 6.87062C11.9173 6.24494 11.3592 5.73494 10.6998 5.39098C10.7757 4.74725 11.0623 4.15241 11.5295 3.68515ZM7.62839 6.25356H8.74526C10.3465 6.25356 11.6491 7.55624 11.6491 9.15744V10.2743H10.5323C8.93107 10.2743 7.62839 8.97164 7.62839 7.37044V6.25356Z" fill="#F9FAF4"/>
</svg>
