<svg width="24" height="24" viewBox="0 0 24 24" fill="none" xmlns="http://www.w3.org/2000/svg">
<path opacity="0.9" d="M19.782 8.02496C20.9125 6.89452 20.397 5.57416 19.782 4.93207L17.069 2.21901C15.9295 1.08857 14.6182 1.60405 13.9761 2.21901L12.4387 3.76546H10.0964C8.37815 3.76546 7.38336 4.66981 6.87692 5.70982L2.86159 9.72515V13.3426L2.2195 13.9756C1.08906 15.1151 1.60454 16.4264 2.2195 17.0685L4.93256 19.7816C5.42091 20.2699 5.94544 20.4508 6.44283 20.4508C7.08492 20.4508 7.67275 20.1343 8.02545 19.7816L10.4672 17.3308H13.7138C15.2512 17.3308 16.029 16.3721 16.3093 15.4316C17.3312 15.1603 17.8919 14.3826 18.118 13.6229C19.5198 13.2612 20.0443 11.9318 20.0443 11.0003V8.28722H19.5107L19.782 8.02496ZM18.2356 11.0003C18.2356 11.4072 18.0638 11.9046 17.3312 11.9046H16.4269V12.809C16.4269 13.216 16.2551 13.7133 15.5225 13.7133H14.6182V14.6177C14.6182 15.0247 14.4464 15.5221 13.7138 15.5221H9.72563L6.75935 18.4883C6.479 18.7506 6.31622 18.5969 6.21674 18.4974L3.51273 15.8024C3.25046 15.5221 3.4042 15.3593 3.50368 15.2598L4.6703 14.0841V10.4667L6.479 8.65801V10.0959C6.479 11.1902 7.20249 12.809 9.19207 12.809C11.1816 12.809 11.9051 11.1902 11.9051 10.0959H18.2356V11.0003ZM18.4979 6.74078L16.9605 8.28722H10.0964V10.0959C10.0964 10.5029 9.92459 11.0003 9.19207 11.0003C8.45954 11.0003 8.28771 10.5029 8.28771 10.0959V7.38287C8.28771 6.96687 8.44145 5.57416 10.0964 5.57416H13.1803L15.2422 3.51224C15.5225 3.24997 15.6853 3.40371 15.7848 3.50319L18.4888 6.19817C18.7511 6.47852 18.5973 6.6413 18.4979 6.74078Z" fill="#F9FAF4"/>
</svg>
